<?xml version="1.0" encoding="utf-8" ?>
<svg baseProfile="full" height="300mm" version="1.1" viewBox="0,0,200,300" width="200mm" xmlns="http://www.w3.org/2000/svg" xmlns:ev="http://www.w3.org/2001/xml-events" xmlns:xlink="http://www.w3.org/1999/xlink"><defs /><rect fill="#222222" height="300" width="200" x="0" y="0" /><text fill="#555555" style="font-size:6px; font-family:Arial;" x="11" y="19">Running for 4144 Days</text><text fill="#555555" style="font-size:6px; font-family:Arial;" x="11" y="39">Races</text><text fill="#555555" style="font-size:8px; font-family:Arial;" x="11" y="59">1</text><text fill="#FFFFFF" style="font-size:10px; font-family:Arial; font-weight:bold;" x="23" y="59">Full</text><text fill="#555555" style="font-size:6px; font-family:Arial;" x="49" y="59">12x</text><text fill="#555555" style="font-size:8px; font-family:Arial;" x="11" y="77">2</text><text fill="#FFFFFF" style="font-size:10px; font-family:Arial; font-weight:bold;" x="23" y="77">Half</text><text fill="#555555" style="font-size:6px; font-family:Arial;" x="49" y="77">102x</text><text fill="#555555" style="font-size:8px; font-family:Arial;" x="11" y="95">3</text><text fill="#FFFFFF" style="font-size:10px; font-family:Arial; font-weight:bold;" x="23" y="95">10K</text><text fill="#555555" style="font-size:6px; font-family:Arial;" x="49" y="95">124x</text><text fill="#555555" style="font-size:6px; font-family:Arial;" x="11" y="133">Stats</text><text fill="#555555" style="font-size:5px; font-family:Arial;" x="11" y="139">Distance</text><text fill="#FFFFFF" style="font-size:10px; font-family:Arial; font-weight:bold;" x="11" y="150">6009</text><text fill="#555555" style="font-size:6px; font-family:Arial;" x="35" y="150">km</text><text fill="#555555" style="font-size:5px; font-family:Arial;" x="53" y="139">Runs</text><text fill="#FFFFFF" style="font-size:10px; font-family:Arial; font-weight:bold;" x="53" y="150">306</text><text fill="#555555" style="font-size:5px; font-family:Arial;" x="11" y="167">Avg Pace</text><text fill="#FFFFFF" style="font-size:10px; font-family:Arial; font-weight:bold;" x="11" y="178">5'30"</text><text fill="#555555" style="font-size:5px; font-family:Arial;" x="53" y="167">Streak</text><text fill="#FFFFFF" style="font-size:10px; font-family:Arial; font-weight:bold;" x="53" y="178">18</text><text fill="#555555" style="font-size:6px; font-family:Arial;" x="65" y="178">d</text><text fill="#555555" style="font-size:5px; font-family:Arial;" x="11" y="195">Time</text><text fill="#FFFFFF" style="font-size:10px; font-family:Arial; font-weight:bold;" x="11" y="206">552</text><text fill="#555555" style="font-size:6px; font-family:Arial;" x="29" y="206">h</text><text fill="#555555" style="font-size:5px; font-family:Arial;" x="53" y="195">Longest</text><text fill="#FFFFFF" style="font-size:10px; font-family:Arial; font-weight:bold;" x="53" y="206">229.2</text><text fill="#555555" style="font-size:5px; font-family:Arial;" x="11" y="252.0645161290322">Runner</text><text fill="#FFFFFF" style="font-size:8px; font-family:Arial; font-weight:bold;" x="11" y="262.0645161290322">Edison</text><text fill="#555555" style="font-size:7px; font-family:Arial;" x="11" y="285.5806451612903">running_page/2021</text><circle cx="85.41666666666667" cy="17.419354838709676" fill="#FFFF00" r="3.3125"><title>2021-01-01: 26 km</title></circle><circle cx="85.41666666666667" cy="26.25806451612903" fill="#FFFF00" r="3.3125"><title>2021-01-02: 26 km</title></circle><circle cx="85.41666666666667" cy="35.096774193548384" fill="#555555" r="3.3125"><title>2021-01-03</title></circle><circle cx="85.41666666666667" cy="43.935483870967744" fill="#FFFF00" r="3.3125"><title>2021-01-04: 21 km</title></circle><circle cx="85.41666666666667" cy="52.774193548387096" fill="#555555" r="3.3125"><title>2021-01-05</title></circle><circle cx="85.41666666666667" cy="61.61290322580645" fill="#FFFF00" r="3.3125"><title>2021-01-06: 22 km</title></circle><circle cx="85.41666666666667" cy="70.45161290322581" fill="#FFFF00" r="3.3125"><title>2021-01-07: 20 km</title></circle><circle cx="85.41666666666667" cy="79.29032258064517" fill="#555555" r="3.3125"><title>2021-01-08</title></circle><circle cx="85.41666666666667" cy="88.12903225806451" fill="#FFFF00" r="3.3125"><title>2021-01-09: 24 km</title></circle><circle cx="85.41666666666667" cy="96.96774193548387" fill="#555555" r="3.3125"><title>2021-01-10</title></circle><circle cx="85.41666666666667" cy="105.80645161290322" fill="#FFFF00" r="3.3125"><title>2021-01-11: 19 km</title></circle><circle cx="85.41666666666667" cy="114.64516129032258" fill="#FFFF00" r="3.3125"><title>2021-01-12: 20 km</title></circle><circle cx="85.41666666666667" cy="123.48387096774194" fill="#FFFF00" r="3.3125"><title>2021-01-13: 13 km</title></circle><circle cx="85.41666666666667" cy="132.32258064516128" fill="#FFFF00" r="3.3125"><title>2021-01-14: 16 km</title></circle><circle cx="85.41666666666667" cy="141.16129032258064" fill="#555555" r="3.3125"><title>2021-01-15</title></circle><circle cx="85.41666666666667" cy="149.99999999999997" fill="#FFFF00" r="3.3125"><title>2021-01-16: 17 km</title></circle><circle cx="85.41666666666667" cy="158.83870967741933" fill="#FFFF00" r="3.3125"><title>2021-01-17: 20 km</title></circle><circle cx="85.41666666666667" cy="167.6774193548387" fill="#555555" r="3.3125"><title>2021-01-18</title></circle><circle cx="85.41666666666667" cy="176.51612903225805" fill="#FFFF00" r="3.3125"><title>2021-01-19: 16 km</title></circle><circle cx="85.41666666666667" cy="185.35483870967738" fill="#FFFF00" r="3.3125"><title>2021-01-20: 10 km</title></circle><circle cx="85.41666666666667" cy="194.19354838709674" fill="#FFFF00" r="3.3125"><title>2021-01-21: 16 km</title></circle><circle cx="85.41666666666667" cy="203.0322580645161" fill="#FFFF00" r="3.3125"><title>2021-01-22: 24 km</title></circle><circle cx="85.41666666666667" cy="211.87096774193546" fill="#555555" r="3.3125"><title>2021-01-23</title></circle><circle cx="85.41666666666667" cy="220.70967741935482" fill="#FFFF00" r="3.3125"><title>2021-01-24: 28 km</title></circle><circle cx="85.41666666666667" cy="229.54838709677418" fill="#555555" r="3.3125"><title>2021-01-25</title></circle><circle cx="85.41666666666667" cy="238.3870967741935" fill="#FFFF00" r="3.3125"><title>2021-01-26: 21 km</title></circle><circle cx="85.41666666666667" cy="247.22580645161287" fill="#555555" r="3.3125"><title>2021-01-27</title></circle><circle cx="85.41666666666667" cy="256.06451612903226" fill="#FFFF00" r="3.3125"><title>2021-01-28: 12 km</title></circle><circle cx="85.41666666666667" cy="264.90322580645164" fill="#555555" r="3.3125"><title>2021-01-29</title></circle><circle cx="85.41666666666667" cy="273.741935483871" fill="#FFFF00" r="3.3125"><title>2021-01-30: 12 km</title></circle><circle cx="85.41666666666667" cy="282.5806451612903" fill="#FFFF00" r="3.3125"><title>2021-01-31: 35 km</title></circle><circle cx="94.25" cy="17.419354838709676" fill="#555555" r="3.3125"><title>2021-02-01</title></circle><circle cx="94.25" cy="26.25806451612903" fill="#FFFF00" r="3.3125"><title>2021-02-02: 16 km</title></circle><circle cx="94.25" cy="35.096774193548384" fill="#555555" r="3.3125"><title>2021-02-03</title></circle><circle cx="94.25" cy="43.935483870967744" fill="#FFFF00" r="3.3125"><title>2021-02-04: 16 km</title></circle><circle cx="94.25" cy="52.774193548387096" fill="#FFFF00" r="3.3125"><title>2021-02-05: 21 km</title></circle><circle cx="94.25" cy="61.61290322580645" fill="#FFFF00" r="3.3125"><title>2021-02-06: 24 km</title></circle><circle cx="94.25" cy="70.45161290322581" fill="#555555" r="3.3125"><title>2021-02-07</title></circle><circle cx="94.25" cy="79.29032258064517" fill="#FFFF00" r="3.3125"><title>2021-02-08: 30 km</title></circle><circle cx="94.25" cy="88.12903225806451" fill="#FFFF00" r="3.3125"><title>2021-02-09: 15 km</title></circle><circle cx="94.25" cy="96.96774193548387" fill="#555555" r="3.3125"><title>2021-02-10</title></circle><circle cx="94.25" cy="105.80645161290322" fill="#FFFF00" r="3.3125"><title>2021-02-11: 21 km</title></circle><circle cx="94.25" cy="114.64516129032258" fill="#FFFF00" r="3.3125"><title>2021-02-12: 27 km</title></circle><circle cx="94.25" cy="123.48387096774194" fill="#555555" r="3.3125"><title>2021-02-13</title></circle><circle cx="94.25" cy="132.32258064516128" fill="#FFFF00" r="3.3125"><title>2021-02-14: 40 km</title></circle><circle cx="94.25" cy="141.16129032258064" fill="#555555" r="3.3125"><title>2021-02-15</title></circle><circle cx="94.25" cy="149.99999999999997" fill="#FFFF00" r="3.3125"><title>2021-02-16: 20 km</title></circle><circle cx="94.25" cy="158.83870967741933" fill="#FFFF00" r="3.3125"><title>2021-02-17: 30 km</title></circle><circle cx="94.25" cy="167.6774193548387" fill="#FFFF00" r="3.3125"><title>2021-02-18: 24 km</title></circle><circle cx="94.25" cy="176.51612903225805" fill="#FFFF00" r="3.3125"><title>2021-02-19: 10 km</title></circle><circle cx="94.25" cy="185.35483870967738" fill="#555555" r="3.3125"><title>2021-02-20</title></circle><circle cx="94.25" cy="194.19354838709674" fill="#FFFF00" r="3.3125"><title>2021-02-21: 18 km</title></circle><circle cx="94.25" cy="203.0322580645161" fill="#FFFF00" r="3.3125"><title>2021-02-22: 16 km</title></circle><circle cx="94.25" cy="211.87096774193546" fill="#FFFF00" r="3.3125"><title>2021-02-23: 16 km</title></circle><circle cx="94.25" cy="220.70967741935482" fill="#FFFF00" r="3.3125"><title>2021-02-24: 16 km</title></circle><circle cx="94.25" cy="229.54838709677418" fill="#FFFF00" r="3.3125"><title>2021-02-25: 16 km</title></circle><circle cx="94.25" cy="238.3870967741935" fill="#555555" r="3.3125"><title>2021-02-26</title></circle><circle cx="94.25" cy="247.22580645161287" fill="#FFFF00" r="3.3125"><title>2021-02-27: 16 km</title></circle><circle cx="94.25" cy="256.06451612903226" fill="#FFFF00" r="3.3125"><title>2021-02-28: 42 km</title></circle><circle cx="103.08333333333334" cy="17.419354838709676" fill="#FFFF00" r="3.3125"><title>2021-03-01: 12 km</title></circle><circle cx="103.08333333333334" cy="26.25806451612903" fill="#555555" r="3.3125"><title>2021-03-02</title></circle><circle cx="103.08333333333334" cy="35.096774193548384" fill="#FFFF00" r="3.3125"><title>2021-03-03: 21 km</title></circle><circle cx="103.08333333333334" cy="43.935483870967744" fill="#FFFF00" r="3.3125"><title>2021-03-04: 17 km</title></circle><circle cx="103.08333333333334" cy="52.774193548387096" fill="#FFFF00" r="3.3125"><title>2021-03-05: 30 km</title></circle><circle cx="103.08333333333334" cy="61.61290322580645" fill="#555555" r="3.3125"><title>2021-03-06</title></circle><circle cx="103.08333333333334" cy="70.45161290322581" fill="#FFFF00" r="3.3125"><title>2021-03-07: 26 km</title></circle><circle cx="103.08333333333334" cy="79.29032258064517" fill="#FFFF00" r="3.3125"><title>2021-03-08: 18 km</title></circle><circle cx="103.08333333333334" cy="88.12903225806451" fill="#FFFF00" r="3.3125"><title>2021-03-09: 16 km</title></circle><circle cx="103.08333333333334" cy="96.96774193548387" fill="#555555" r="3.3125"><title>2021-03-10</title></circle><circle cx="103.08333333333334" cy="105.80645161290322" fill="#FFFF00" r="3.3125"><title>2021-03-11: 20 km</title></circle><circle cx="103.08333333333334" cy="114.64516129032258" fill="#FFFF00" r="3.3125"><title>2021-03-12: 27 km</title></circle><circle cx="103.08333333333334" cy="123.48387096774194" fill="#FFFF00" r="3.3125"><title>2021-03-13: 42 km</title></circle><circle cx="103.08333333333334" cy="132.32258064516128" fill="#555555" r="3.3125"><title>2021-03-14</title></circle><circle cx="103.08333333333334" cy="141.16129032258064" fill="#555555" r="3.3125"><title>2021-03-15</title></circle><circle cx="103.08333333333334" cy="149.99999999999997" fill="#FFFF00" r="3.3125"><title>2021-03-16: 21 km</title></circle><circle cx="103.08333333333334" cy="158.83870967741933" fill="#FFFF00" r="3.3125"><title>2021-03-17: 20 km</title></circle><circle cx="103.08333333333334" cy="167.6774193548387" fill="#FFFF00" r="3.3125"><title>2021-03-18: 20 km</title></circle><circle cx="103.08333333333334" cy="176.51612903225805" fill="#FFFF00" r="3.3125"><title>2021-03-19: 31 km</title></circle><circle cx="103.08333333333334" cy="185.35483870967738" fill="#555555" r="3.3125"><title>2021-03-20</title></circle><circle cx="103.08333333333334" cy="194.19354838709674" fill="#FFFF00" r="3.3125"><title>2021-03-21: 25 km</title></circle><circle cx="103.08333333333334" cy="203.0322580645161" fill="#555555" r="3.3125"><title>2021-03-22</title></circle><circle cx="103.08333333333334" cy="211.87096774193546" fill="#FFFF00" r="3.3125"><title>2021-03-23: 20 km</title></circle><circle cx="103.08333333333334" cy="220.70967741935482" fill="#FFFF00" r="3.3125"><title>2021-03-24: 17 km</title></circle><circle cx="103.08333333333334" cy="229.54838709677418" fill="#FFFF00" r="3.3125"><title>2021-03-25: 20 km</title></circle><circle cx="103.08333333333334" cy="238.3870967741935" fill="#FFFF00" r="3.3125"><title>2021-03-26: 13 km</title></circle><circle cx="103.08333333333334" cy="247.22580645161287" fill="#FFFF00" r="3.3125"><title>2021-03-27: 15 km</title></circle><circle cx="103.08333333333334" cy="256.06451612903226" fill="#FFFF00" r="3.3125"><title>2021-03-28: 18 km</title></circle><circle cx="103.08333333333334" cy="264.90322580645164" fill="#FFFF00" r="3.3125"><title>2021-03-29: 25 km</title></circle><circle cx="103.08333333333334" cy="273.741935483871" fill="#555555" r="3.3125"><title>2021-03-30</title></circle><circle cx="103.08333333333334" cy="282.5806451612903" fill="#FFFF00" r="3.3125"><title>2021-03-31: 23 km</title></circle><circle cx="111.91666666666667" cy="17.419354838709676" fill="#FFFF00" r="3.3125"><title>2021-04-01: 20 km</title></circle><circle cx="111.91666666666667" cy="26.25806451612903" fill="#FFFF00" r="3.3125"><title>2021-04-02: 16 km</title></circle><circle cx="111.91666666666667" cy="35.096774193548384" fill="#555555" r="3.3125"><title>2021-04-03</title></circle><circle cx="111.91666666666667" cy="43.935483870967744" fill="#FFFF00" r="3.3125"><title>2021-04-04: 45 km</title></circle><circle cx="111.91666666666667" cy="52.774193548387096" fill="#555555" r="3.3125"><title>2021-04-05</title></circle><circle cx="111.91666666666667" cy="61.61290322580645" fill="#FFFF00" r="3.3125"><title>2021-04-06: 14 km</title></circle><circle cx="111.91666666666667" cy="70.45161290322581" fill="#4dc2ea" r="3.3125"><title>2021-04-07: 8 km</title></circle><circle cx="111.91666666666667" cy="79.29032258064517" fill="#FFFF00" r="3.3125"><title>2021-04-08: 21 km</title></circle><circle cx="111.91666666666667" cy="88.12903225806451" fill="#FFFF00" r="3.3125"><title>2021-04-09: 25 km</title></circle><circle cx="111.91666666666667" cy="96.96774193548387" fill="#555555" r="3.3125"><title>2021-04-10</title></circle><circle cx="111.91666666666667" cy="105.80645161290322" fill="#FFFF00" r="3.3125"><title>2021-04-11: 20 km</title></circle><circle cx="111.91666666666667" cy="114.64516129032258" fill="#FFFF00" r="3.3125"><title>2021-04-12: 20 km</title></circle><circle cx="111.91666666666667" cy="123.48387096774194" fill="#FFFF00" r="3.3125"><title>2021-04-13: 16 km</title></circle><circle cx="111.91666666666667" cy="132.32258064516128" fill="#555555" r="3.3125"><title>2021-04-14</title></circle><circle cx="111.91666666666667" cy="141.16129032258064" fill="#FFFF00" r="3.3125"><title>2021-04-15: 25 km</title></circle><circle cx="111.91666666666667" cy="149.99999999999997" fill="#FFFF00" r="3.3125"><title>2021-04-16: 25 km</title></circle><circle cx="111.91666666666667" cy="158.83870967741933" fill="#FFFF00" r="3.3125"><title>2021-04-17: 36 km</title></circle><circle cx="111.91666666666667" cy="167.6774193548387" fill="#555555" r="3.3125"><title>2021-04-18</title></circle><circle cx="111.91666666666667" cy="176.51612903225805" fill="#FFFF00" r="3.3125"><title>2021-04-19: 17 km</title></circle><circle cx="111.91666666666667" cy="185.35483870967738" fill="#FFFF00" r="3.3125"><title>2021-04-20: 30 km</title></circle><circle cx="111.91666666666667" cy="194.19354838709674" fill="#FFFF00" r="3.3125"><title>2021-04-21: 23 km</title></circle><circle cx="111.91666666666667" cy="203.0322580645161" fill="#FFFF00" r="3.3125"><title>2021-04-22: 20 km</title></circle><circle cx="111.91666666666667" cy="211.87096774193546" fill="#FFFF00" r="3.3125"><title>2021-04-23: 23 km</title></circle><circle cx="111.91666666666667" cy="220.70967741935482" fill="#FFFF00" r="3.3125"><title>2021-04-24: 23 km</title></circle><circle cx="111.91666666666667" cy="229.54838709677418" fill="#FFFF00" r="3.3125"><title>2021-04-25: 23 km</title></circle><circle cx="111.91666666666667" cy="238.3870967741935" fill="#FFFF00" r="3.3125"><title>2021-04-26: 16 km</title></circle><circle cx="111.91666666666667" cy="247.22580645161287" fill="#555555" r="3.3125"><title>2021-04-27</title></circle><circle cx="111.91666666666667" cy="256.06451612903226" fill="#FFFF00" r="3.3125"><title>2021-04-28: 16 km</title></circle><circle cx="111.91666666666667" cy="264.90322580645164" fill="#FFFF00" r="3.3125"><title>2021-04-29: 16 km</title></circle><circle cx="111.91666666666667" cy="273.741935483871" fill="#FFFF00" r="3.3125"><title>2021-04-30: 16 km</title></circle><circle cx="120.75000000000001" cy="17.419354838709676" fill="#4fa7c5" r="3.3125"><title>2021-05-01: 6 km</title></circle><circle cx="120.75000000000001" cy="26.25806451612903" fill="#FFFF00" r="3.3125"><title>2021-05-02: 26 km</title></circle><circle cx="120.75000000000001" cy="35.096774193548384" fill="#FFFF00" r="3.3125"><title>2021-05-03: 51 km</title></circle><circle cx="120.75000000000001" cy="43.935483870967744" fill="#FFFF00" r="3.3125"><title>2021-05-04: 16 km</title></circle><circle cx="120.75000000000001" cy="52.774193548387096" fill="#FFFF00" r="3.3125"><title>2021-05-05: 20 km</title></circle><circle cx="120.75000000000001" cy="61.61290322580645" fill="#FFFF00" r="3.3125"><title>2021-05-06: 16 km</title></circle><circle cx="120.75000000000001" cy="70.45161290322581" fill="#FFFF00" r="3.3125"><title>2021-05-07: 16 km</title></circle><circle cx="120.75000000000001" cy="79.29032258064517" fill="#FFFF00" r="3.3125"><title>2021-05-08: 16 km</title></circle><circle cx="120.75000000000001" cy="88.12903225806451" fill="#FFFF00" r="3.3125"><title>2021-05-09: 22 km</title></circle><circle cx="120.75000000000001" cy="96.96774193548387" fill="#FFFF00" r="3.3125"><title>2021-05-10: 16 km</title></circle><circle cx="120.75000000000001" cy="105.80645161290322" fill="#FFFF00" r="3.3125"><title>2021-05-11: 21 km</title></circle><circle cx="120.75000000000001" cy="114.64516129032258" fill="#FFFF00" r="3.3125"><title>2021-05-12: 16 km</title></circle><circle cx="120.75000000000001" cy="123.48387096774194" fill="#FFFF00" r="3.3125"><title>2021-05-13: 17 km</title></circle><circle cx="120.75000000000001" cy="132.32258064516128" fill="#FFFF00" r="3.3125"><title>2021-05-14: 15 km</title></circle><circle cx="120.75000000000001" cy="141.16129032258064" fill="#FFFF00" r="3.3125"><title>2021-05-15: 35 km</title></circle><circle cx="120.75000000000001" cy="149.99999999999997" fill="#555555" r="3.3125"><title>2021-05-16</title></circle><circle cx="120.75000000000001" cy="158.83870967741933" fill="#555555" r="3.3125"><title>2021-05-17</title></circle><circle cx="120.75000000000001" cy="167.6774193548387" fill="#555555" r="3.3125"><title>2021-05-18</title></circle><circle cx="120.75000000000001" cy="176.51612903225805" fill="#FFFF00" r="3.3125"><title>2021-05-19: 16 km</title></circle><circle cx="120.75000000000001" cy="185.35483870967738" fill="#FFFF00" r="3.3125"><title>2021-05-20: 21 km</title></circle><circle cx="120.75000000000001" cy="194.19354838709674" fill="#FFFF00" r="3.3125"><title>2021-05-21: 16 km</title></circle><circle cx="120.75000000000001" cy="203.0322580645161" fill="#FFFF00" r="3.3125"><title>2021-05-22: 25 km</title></circle><circle cx="120.75000000000001" cy="211.87096774193546" fill="#4ebbe1" r="3.3125"><title>2021-05-23: 8 km</title></circle><circle cx="120.75000000000001" cy="220.70967741935482" fill="#FFFF00" r="3.3125"><title>2021-05-24: 23 km</title></circle><circle cx="120.75000000000001" cy="229.54838709677418" fill="#555555" r="3.3125"><title>2021-05-25</title></circle><circle cx="120.75000000000001" cy="238.3870967741935" fill="#FFFF00" r="3.3125"><title>2021-05-26: 23 km</title></circle><circle cx="120.75000000000001" cy="247.22580645161287" fill="#FFFF00" r="3.3125"><title>2021-05-27: 17 km</title></circle><circle cx="120.75000000000001" cy="256.06451612903226" fill="#FFFF00" r="3.3125"><title>2021-05-28: 15 km</title></circle><circle cx="120.75000000000001" cy="264.90322580645164" fill="#FFFF00" r="3.3125"><title>2021-05-29: 28 km</title></circle><circle cx="120.75000000000001" cy="273.741935483871" fill="#555555" r="3.3125"><title>2021-05-30</title></circle><circle cx="120.75000000000001" cy="282.5806451612903" fill="#555555" r="3.3125"><title>2021-05-31</title></circle><circle cx="129.58333333333334" cy="17.419354838709676" fill="#555555" r="3.3125"><title>2021-06-01</title></circle><circle cx="129.58333333333334" cy="26.25806451612903" fill="#555555" r="3.3125"><title>2021-06-02</title></circle><circle cx="129.58333333333334" cy="35.096774193548384" fill="#555555" r="3.3125"><title>2021-06-03</title></circle><circle cx="129.58333333333334" cy="43.935483870967744" fill="#555555" r="3.3125"><title>2021-06-04</title></circle><circle cx="129.58333333333334" cy="52.774193548387096" fill="#FFFF00" r="3.3125"><title>2021-06-05: 29 km</title></circle><circle cx="129.58333333333334" cy="61.61290322580645" fill="#555555" r="3.3125"><title>2021-06-06</title></circle><circle cx="129.58333333333334" cy="70.45161290322581" fill="#555555" r="3.3125"><title>2021-06-07</title></circle><circle cx="129.58333333333334" cy="79.29032258064517" fill="#555555" r="3.3125"><title>2021-06-08</title></circle><circle cx="129.58333333333334" cy="88.12903225806451" fill="#FFFF00" r="3.3125"><title>2021-06-09: 21 km</title></circle><circle cx="129.58333333333334" cy="96.96774193548387" fill="#FFFF00" r="3.3125"><title>2021-06-10: 21 km</title></circle><circle cx="129.58333333333334" cy="105.80645161290322" fill="#FFFF00" r="3.3125"><title>2021-06-11: 27 km</title></circle><circle cx="129.58333333333334" cy="114.64516129032258" fill="#FFFF00" r="3.3125"><title>2021-06-12: 17 km</title></circle><circle cx="129.58333333333334" cy="123.48387096774194" fill="#555555" r="3.3125"><title>2021-06-13</title></circle><circle cx="129.58333333333334" cy="132.32258064516128" fill="#FFFF00" r="3.3125"><title>2021-06-14: 25 km</title></circle><circle cx="129.58333333333334" cy="141.16129032258064" fill="#FFFF00" r="3.3125"><title>2021-06-15: 40 km</title></circle><circle cx="129.58333333333334" cy="149.99999999999997" fill="#555555" r="3.3125"><title>2021-06-16</title></circle><circle cx="129.58333333333334" cy="158.83870967741933" fill="#FFFF00" r="3.3125"><title>2021-06-17: 20 km</title></circle><circle cx="129.58333333333334" cy="167.6774193548387" fill="#FFFF00" r="3.3125"><title>2021-06-18: 30 km</title></circle><circle cx="129.58333333333334" cy="176.51612903225805" fill="#555555" r="3.3125"><title>2021-06-19</title></circle><circle cx="129.58333333333334" cy="185.35483870967738" fill="#FFFF00" r="3.3125"><title>2021-06-20: 30 km</title></circle><circle cx="129.58333333333334" cy="194.19354838709674" fill="#555555" r="3.3125"><title>2021-06-21</title></circle><circle cx="129.58333333333334" cy="203.0322580645161" fill="#555555" r="3.3125"><title>2021-06-22</title></circle><circle cx="129.58333333333334" cy="211.87096774193546" fill="#555555" r="3.3125"><title>2021-06-23</title></circle><circle cx="129.58333333333334" cy="220.70967741935482" fill="#FFFF00" r="3.3125"><title>2021-06-24: 37 km</title></circle><circle cx="129.58333333333334" cy="229.54838709677418" fill="#FFFF00" r="3.3125"><title>2021-06-25: 38 km</title></circle><circle cx="129.58333333333334" cy="238.3870967741935" fill="#FFFF00" r="3.3125"><title>2021-06-26: 54 km</title></circle><circle cx="129.58333333333334" cy="247.22580645161287" fill="#555555" r="3.3125"><title>2021-06-27</title></circle><circle cx="129.58333333333334" cy="256.06451612903226" fill="#FFFF00" r="3.3125"><title>2021-06-28: 30 km</title></circle><circle cx="129.58333333333334" cy="264.90322580645164" fill="#FFFF00" r="3.3125"><title>2021-06-29: 22 km</title></circle><circle cx="129.58333333333334" cy="273.741935483871" fill="#FFFF00" r="3.3125"><title>2021-06-30: 10 km</title></circle><circle cx="138.41666666666666" cy="17.419354838709676" fill="#FFFF00" r="3.3125"><title>2021-07-01: 108 km</title></circle><circle cx="138.41666666666666" cy="26.25806451612903" fill="#FFFF00" r="3.3125"><title>2021-07-02: 29 km</title></circle><circle cx="138.41666666666666" cy="35.096774193548384" fill="#555555" r="3.3125"><title>2021-07-03</title></circle><circle cx="138.41666666666666" cy="43.935483870967744" fill="#FFFF00" r="3.3125"><title>2021-07-04: 27 km</title></circle><circle cx="138.41666666666666" cy="52.774193548387096" fill="#555555" r="3.3125"><title>2021-07-05</title></circle><circle cx="138.41666666666666" cy="61.61290322580645" fill="#555555" r="3.3125"><title>2021-07-06</title></circle><circle cx="138.41666666666666" cy="70.45161290322581" fill="#FFFF00" r="3.3125"><title>2021-07-07: 15 km</title></circle><circle cx="138.41666666666666" cy="79.29032258064517" fill="#FFFF00" r="3.3125"><title>2021-07-08: 16 km</title></circle><circle cx="138.41666666666666" cy="88.12903225806451" fill="#FFFF00" r="3.3125"><title>2021-07-09: 32 km</title></circle><circle cx="138.41666666666666" cy="96.96774193548387" fill="#FFFF00" r="3.3125"><title>2021-07-10: 26 km</title></circle><circle cx="138.41666666666666" cy="105.80645161290322" fill="#FFFF00" r="3.3125"><title>2021-07-11: 30 km</title></circle><circle cx="138.41666666666666" cy="114.64516129032258" fill="#555555" r="3.3125"><title>2021-07-12</title></circle><circle cx="138.41666666666666" cy="123.48387096774194" fill="#555555" r="3.3125"><title>2021-07-13</title></circle><circle cx="138.41666666666666" cy="132.32258064516128" fill="#555555" r="3.3125"><title>2021-07-14</title></circle><circle cx="138.41666666666666" cy="141.16129032258064" fill="#FFFF00" r="3.3125"><title>2021-07-15: 15 km</title></circle><circle cx="138.41666666666666" cy="149.99999999999997" fill="#555555" r="3.3125"><title>2021-07-16</title></circle><circle cx="138.41666666666666" cy="158.83870967741933" fill="#FFFF00" r="3.3125"><title>2021-07-17: 15 km</title></circle><circle cx="138.41666666666666" cy="167.6774193548387" fill="#FFFF00" r="3.3125"><title>2021-07-18: 34 km</title></circle><circle cx="138.41666666666666" cy="176.51612903225805" fill="#555555" r="3.3125"><title>2021-07-19</title></circle><circle cx="138.41666666666666" cy="185.35483870967738" fill="#555555" r="3.3125"><title>2021-07-20</title></circle><circle cx="138.41666666666666" cy="194.19354838709674" fill="#FFFF00" r="3.3125"><title>2021-07-21: 15 km</title></circle><circle cx="138.41666666666666" cy="203.0322580645161" fill="#FFFF00" r="3.3125"><title>2021-07-22: 15 km</title></circle><circle cx="138.41666666666666" cy="211.87096774193546" fill="#FFFF00" r="3.3125"><title>2021-07-23: 15 km</title></circle><circle cx="138.41666666666666" cy="220.70967741935482" fill="#FFFF00" r="3.3125"><title>2021-07-24: 29 km</title></circle><circle cx="138.41666666666666" cy="229.54838709677418" fill="#FFFF00" r="3.3125"><title>2021-07-25: 22 km</title></circle><circle cx="138.41666666666666" cy="238.3870967741935" fill="#FFFF00" r="3.3125"><title>2021-07-26: 15 km</title></circle><circle cx="138.41666666666666" cy="247.22580645161287" fill="#555555" r="3.3125"><title>2021-07-27</title></circle><circle cx="138.41666666666666" cy="256.06451612903226" fill="#555555" r="3.3125"><title>2021-07-28</title></circle><circle cx="138.41666666666666" cy="264.90322580645164" fill="#FFFF00" r="3.3125"><title>2021-07-29: 21 km</title></circle><circle cx="138.41666666666666" cy="273.741935483871" fill="#FFFF00" r="3.3125"><title>2021-07-30: 26 km</title></circle><circle cx="138.41666666666666" cy="282.5806451612903" fill="#FFFF00" r="3.3125"><title>2021-07-31: 14 km</title></circle><circle cx="147.25" cy="17.419354838709676" fill="#FFFF00" r="3.3125"><title>2021-08-01: 15 km</title></circle><circle cx="147.25" cy="26.25806451612903" fill="#555555" r="3.3125"><title>2021-08-02</title></circle><circle cx="147.25" cy="35.096774193548384" fill="#555555" r="3.3125"><title>2021-08-03</title></circle><circle cx="147.25" cy="43.935483870967744" fill="#FFFF00" r="3.3125"><title>2021-08-04: 14 km</title></circle><circle cx="147.25" cy="52.774193548387096" fill="#555555" r="3.3125"><title>2021-08-05</title></circle><circle cx="147.25" cy="61.61290322580645" fill="#FFFF00" r="3.3125"><title>2021-08-06: 25 km</title></circle><circle cx="147.25" cy="70.45161290322581" fill="#FFFF00" r="3.3125"><title>2021-08-07: 31 km</title></circle><circle cx="147.25" cy="79.29032258064517" fill="#FFFF00" r="3.3125"><title>2021-08-08: 27 km</title></circle><circle cx="147.25" cy="88.12903225806451" fill="#555555" r="3.3125"><title>2021-08-09</title></circle><circle cx="147.25" cy="96.96774193548387" fill="#555555" r="3.3125"><title>2021-08-10</title></circle><circle cx="147.25" cy="105.80645161290322" fill="#555555" r="3.3125"><title>2021-08-11</title></circle><circle cx="147.25" cy="114.64516129032258" fill="#FFFF00" r="3.3125"><title>2021-08-12: 21 km</title></circle><circle cx="147.25" cy="123.48387096774194" fill="#FFFF00" r="3.3125"><title>2021-08-13: 30 km</title></circle><circle cx="147.25" cy="132.32258064516128" fill="#FFFF00" r="3.3125"><title>2021-08-14: 21 km</title></circle><circle cx="147.25" cy="141.16129032258064" fill="#FFFF00" r="3.3125"><title>2021-08-15: 35 km</title></circle><circle cx="147.25" cy="149.99999999999997" fill="#555555" r="3.3125"><title>2021-08-16</title></circle><circle cx="147.25" cy="158.83870967741933" fill="#555555" r="3.3125"><title>2021-08-17</title></circle><circle cx="147.25" cy="167.6774193548387" fill="#FFFF00" r="3.3125"><title>2021-08-18: 15 km</title></circle><circle cx="147.25" cy="176.51612903225805" fill="#FFFF00" r="3.3125"><title>2021-08-19: 25 km</title></circle><circle cx="147.25" cy="185.35483870967738" fill="#FFFF00" r="3.3125"><title>2021-08-20: 20 km</title></circle><circle cx="147.25" cy="194.19354838709674" fill="#FFFF00" r="3.3125"><title>2021-08-21: 31 km</title></circle><circle cx="147.25" cy="203.0322580645161" fill="#555555" r="3.3125"><title>2021-08-22</title></circle><circle cx="147.25" cy="211.87096774193546" fill="#FFFF00" r="3.3125"><title>2021-08-23: 12 km</title></circle><circle cx="147.25" cy="220.70967741935482" fill="#FFFF00" r="3.3125"><title>2021-08-24: 32 km</title></circle><circle cx="147.25" cy="229.54838709677418" fill="#FFFF00" r="3.3125"><title>2021-08-25: 22 km</title></circle><circle cx="147.25" cy="238.3870967741935" fill="#FFFF00" r="3.3125"><title>2021-08-26: 15 km</title></circle><circle cx="147.25" cy="247.22580645161287" fill="#FFFF00" r="3.3125"><title>2021-08-27: 131 km</title></circle><circle cx="147.25" cy="256.06451612903226" fill="#FFFF00" r="3.3125"><title>2021-08-28: 11 km</title></circle><circle cx="147.25" cy="264.90322580645164" fill="#FFFF00" r="3.3125"><title>2021-08-29: 32 km</title></circle><circle cx="147.25" cy="273.741935483871" fill="#555555" r="3.3125"><title>2021-08-30</title></circle><circle cx="147.25" cy="282.5806451612903" fill="#555555" r="3.3125"><title>2021-08-31</title></circle><circle cx="156.08333333333334" cy="17.419354838709676" fill="#FFFF00" r="3.3125"><title>2021-09-01: 16 km</title></circle><circle cx="156.08333333333334" cy="26.25806451612903" fill="#555555" r="3.3125"><title>2021-09-02</title></circle><circle cx="156.08333333333334" cy="35.096774193548384" fill="#FFFF00" r="3.3125"><title>2021-09-03: 24 km</title></circle><circle cx="156.08333333333334" cy="43.935483870967744" fill="#FFFF00" r="3.3125"><title>2021-09-04: 30 km</title></circle><circle cx="156.08333333333334" cy="52.774193548387096" fill="#FFFF00" r="3.3125"><title>2021-09-05: 13 km</title></circle><circle cx="156.08333333333334" cy="61.61290322580645" fill="#555555" r="3.3125"><title>2021-09-06</title></circle><circle cx="156.08333333333334" cy="70.45161290322581" fill="#FFFF00" r="3.3125"><title>2021-09-07: 11 km</title></circle><circle cx="156.08333333333334" cy="79.29032258064517" fill="#FFFF00" r="3.3125"><title>2021-09-08: 11 km</title></circle><circle cx="156.08333333333334" cy="88.12903225806451" fill="#555555" r="3.3125"><title>2021-09-09</title></circle><circle cx="156.08333333333334" cy="96.96774193548387" fill="#FFFF00" r="3.3125"><title>2021-09-10: 28 km</title></circle><circle cx="156.08333333333334" cy="105.80645161290322" fill="#555555" r="3.3125"><title>2021-09-11</title></circle><circle cx="156.08333333333334" cy="114.64516129032258" fill="#FFFF00" r="3.3125"><title>2021-09-12: 10 km</title></circle><circle cx="156.08333333333334" cy="123.48387096774194" fill="#555555" r="3.3125"><title>2021-09-13</title></circle><circle cx="156.08333333333334" cy="132.32258064516128" fill="#555555" r="3.3125"><title>2021-09-14</title></circle><circle cx="156.08333333333334" cy="141.16129032258064" fill="#555555" r="3.3125"><title>2021-09-15</title></circle><circle cx="156.08333333333334" cy="149.99999999999997" fill="#555555" r="3.3125"><title>2021-09-16</title></circle><circle cx="156.08333333333334" cy="158.83870967741933" fill="#FFFF00" r="3.3125"><title>2021-09-17: 16 km</title></circle><circle cx="156.08333333333334" cy="167.6774193548387" fill="#FFFF00" r="3.3125"><title>2021-09-18: 27 km</title></circle><circle cx="156.08333333333334" cy="176.51612903225805" fill="#555555" r="3.3125"><title>2021-09-19</title></circle><circle cx="156.08333333333334" cy="185.35483870967738" fill="#555555" r="3.3125"><title>2021-09-20</title></circle><circle cx="156.08333333333334" cy="194.19354838709674" fill="#FFFF00" r="3.3125"><title>2021-09-21: 23 km</title></circle><circle cx="156.08333333333334" cy="203.0322580645161" fill="#555555" r="3.3125"><title>2021-09-22</title></circle><circle cx="156.08333333333334" cy="211.87096774193546" fill="#555555" r="3.3125"><title>2021-09-23</title></circle><circle cx="156.08333333333334" cy="220.70967741935482" fill="#555555" r="3.3125"><title>2021-09-24</title></circle><circle cx="156.08333333333334" cy="229.54838709677418" fill="#FFFF00" r="3.3125"><title>2021-09-25: 64 km</title></circle><circle cx="156.08333333333334" cy="238.3870967741935" fill="#4ebce1" r="3.3125"><title>2021-09-26: 8 km</title></circle><circle cx="156.08333333333334" cy="247.22580645161287" fill="#50a1bc" r="3.3125"><title>2021-09-27: 6 km</title></circle><circle cx="156.08333333333334" cy="256.06451612903226" fill="#FFFF00" r="3.3125"><title>2021-09-28: 229 km</title></circle><circle cx="156.08333333333334" cy="264.90322580645164" fill="#FFFF00" r="3.3125"><title>2021-09-29: 80 km</title></circle><circle cx="156.08333333333334" cy="273.741935483871" fill="#555555" r="3.3125"><title>2021-09-30</title></circle><circle cx="164.91666666666666" cy="17.419354838709676" fill="#555555" r="3.3125"><title>2021-10-01</title></circle><circle cx="164.91666666666666" cy="26.25806451612903" fill="#555555" r="3.3125"><title>2021-10-02</title></circle><circle cx="164.91666666666666" cy="35.096774193548384" fill="#555555" r="3.3125"><title>2021-10-03</title></circle><circle cx="164.91666666666666" cy="43.935483870967744" fill="#FFFF00" r="3.3125"><title>2021-10-04: 179 km</title></circle><circle cx="164.91666666666666" cy="52.774193548387096" fill="#555555" r="3.3125"><title>2021-10-05</title></circle><circle cx="164.91666666666666" cy="61.61290322580645" fill="#527784" r="3.3125"><title>2021-10-06: 2 km</title></circle><circle cx="164.91666666666666" cy="70.45161290322581" fill="#555555" r="3.3125"><title>2021-10-07</title></circle><circle cx="164.91666666666666" cy="79.29032258064517" fill="#555555" r="3.3125"><title>2021-10-08</title></circle><circle cx="164.91666666666666" cy="88.12903225806451" fill="#555555" r="3.3125"><title>2021-10-09</title></circle><circle cx="164.91666666666666" cy="96.96774193548387" fill="#FFFF00" r="3.3125"><title>2021-10-10: 13 km</title></circle><circle cx="164.91666666666666" cy="105.80645161290322" fill="#FFFF00" r="3.3125"><title>2021-10-11: 21 km</title></circle><circle cx="164.91666666666666" cy="114.64516129032258" fill="#555555" r="3.3125"><title>2021-10-12</title></circle><circle cx="164.91666666666666" cy="123.48387096774194" fill="#555555" r="3.3125"><title>2021-10-13</title></circle><circle cx="164.91666666666666" cy="132.32258064516128" fill="#FFFF00" r="3.3125"><title>2021-10-14: 21 km</title></circle><circle cx="164.91666666666666" cy="141.16129032258064" fill="#555555" r="3.3125"><title>2021-10-15</title></circle><circle cx="164.91666666666666" cy="149.99999999999997" fill="#FFFF00" r="3.3125"><title>2021-10-16: 26 km</title></circle><circle cx="164.91666666666666" cy="158.83870967741933" fill="#555555" r="3.3125"><title>2021-10-17</title></circle><circle cx="164.91666666666666" cy="167.6774193548387" fill="#FFFF00" r="3.3125"><title>2021-10-18: 15 km</title></circle><circle cx="164.91666666666666" cy="176.51612903225805" fill="#FFFF00" r="3.3125"><title>2021-10-19: 15 km</title></circle><circle cx="164.91666666666666" cy="185.35483870967738" fill="#FFFF00" r="3.3125"><title>2021-10-20: 15 km</title></circle><circle cx="164.91666666666666" cy="194.19354838709674" fill="#FFFF00" r="3.3125"><title>2021-10-21: 30 km</title></circle><circle cx="164.91666666666666" cy="203.0322580645161" fill="#FFFF00" r="3.3125"><title>2021-10-22: 21 km</title></circle><circle cx="164.91666666666666" cy="211.87096774193546" fill="#FFFF00" r="3.3125"><title>2021-10-23: 13 km</title></circle><circle cx="164.91666666666666" cy="220.70967741935482" fill="#FFFF00" r="3.3125"><title>2021-10-24: 42 km</title></circle><circle cx="164.91666666666666" cy="229.54838709677418" fill="#555555" r="3.3125"><title>2021-10-25</title></circle><circle cx="164.91666666666666" cy="238.3870967741935" fill="#555555" r="3.3125"><title>2021-10-26</title></circle><circle cx="164.91666666666666" cy="247.22580645161287" fill="#555555" r="3.3125"><title>2021-10-27</title></circle><circle cx="164.91666666666666" cy="256.06451612903226" fill="#FFFF00" r="3.3125"><title>2021-10-28: 24 km</title></circle><circle cx="164.91666666666666" cy="264.90322580645164" fill="#555555" r="3.3125"><title>2021-10-29</title></circle><circle cx="164.91666666666666" cy="273.741935483871" fill="#FFFF00" r="3.3125"><title>2021-10-30: 20 km</title></circle><circle cx="164.91666666666666" cy="282.5806451612903" fill="#FFFF00" r="3.3125"><title>2021-10-31: 24 km</title></circle><circle cx="173.75" cy="17.419354838709676" fill="#FFFF00" r="3.3125"><title>2021-11-01: 15 km</title></circle><circle cx="173.75" cy="26.25806451612903" fill="#555555" r="3.3125"><title>2021-11-02</title></circle><circle cx="173.75" cy="35.096774193548384" fill="#FFFF00" r="3.3125"><title>2021-11-03: 15 km</title></circle><circle cx="173.75" cy="43.935483870967744" fill="#FFFF00" r="3.3125"><title>2021-11-04: 27 km</title></circle><circle cx="173.75" cy="52.774193548387096" fill="#555555" r="3.3125"><title>2021-11-05</title></circle><circle cx="173.75" cy="61.61290322580645" fill="#FFFF00" r="3.3125"><title>2021-11-06: 25 km</title></circle><circle cx="173.75" cy="70.45161290322581" fill="#555555" r="3.3125"><title>2021-11-07</title></circle><circle cx="173.75" cy="79.29032258064517" fill="#FFFF00" r="3.3125"><title>2021-11-08: 21 km</title></circle><circle cx="173.75" cy="88.12903225806451" fill="#FFFF00" r="3.3125"><title>2021-11-09: 27 km</title></circle><circle cx="173.75" cy="96.96774193548387" fill="#FFFF00" r="3.3125"><title>2021-11-10: 28 km</title></circle><circle cx="173.75" cy="105.80645161290322" fill="#FFFF00" r="3.3125"><title>2021-11-11: 24 km</title></circle><circle cx="173.75" cy="114.64516129032258" fill="#FFFF00" r="3.3125"><title>2021-11-12: 24 km</title></circle><circle cx="173.75" cy="123.48387096774194" fill="#FFFF00" r="3.3125"><title>2021-11-13: 27 km</title></circle><circle cx="173.75" cy="132.32258064516128" fill="#FFFF00" r="3.3125"><title>2021-11-14: 31 km</title></circle><circle cx="173.75" cy="141.16129032258064" fill="#555555" r="3.3125"><title>2021-11-15</title></circle><circle cx="173.75" cy="149.99999999999997" fill="#555555" r="3.3125"><title>2021-11-16</title></circle><circle cx="173.75" cy="158.83870967741933" fill="#FFFF00" r="3.3125"><title>2021-11-17: 16 km</title></circle><circle cx="173.75" cy="167.6774193548387" fill="#FFFF00" r="3.3125"><title>2021-11-18: 16 km</title></circle><circle cx="173.75" cy="176.51612903225805" fill="#555555" r="3.3125"><title>2021-11-19</title></circle><circle cx="173.75" cy="185.35483870967738" fill="#555555" r="3.3125"><title>2021-11-20</title></circle><circle cx="173.75" cy="194.19354838709674" fill="#FFFF00" r="3.3125"><title>2021-11-21: 17 km</title></circle><circle cx="173.75" cy="203.0322580645161" fill="#555555" r="3.3125"><title>2021-11-22</title></circle><circle cx="173.75" cy="211.87096774193546" fill="#555555" r="3.3125"><title>2021-11-23</title></circle><circle cx="173.75" cy="220.70967741935482" fill="#FFFF00" r="3.3125"><title>2021-11-24: 16 km</title></circle><circle cx="173.75" cy="229.54838709677418" fill="#FFFF00" r="3.3125"><title>2021-11-25: 22 km</title></circle><circle cx="173.75" cy="238.3870967741935" fill="#FFFF00" r="3.3125"><title>2021-11-26: 30 km</title></circle><circle cx="173.75" cy="247.22580645161287" fill="#FFFF00" r="3.3125"><title>2021-11-27: 20 km</title></circle><circle cx="173.75" cy="256.06451612903226" fill="#FFFF00" r="3.3125"><title>2021-11-28: 27 km</title></circle><circle cx="173.75" cy="264.90322580645164" fill="#555555" r="3.3125"><title>2021-11-29</title></circle><circle cx="173.75" cy="273.741935483871" fill="#555555" r="3.3125"><title>2021-11-30</title></circle><circle cx="182.58333333333334" cy="17.419354838709676" fill="#FFFF00" r="3.3125"><title>2021-12-01: 21 km</title></circle><circle cx="182.58333333333334" cy="26.25806451612903" fill="#FFFF00" r="3.3125"><title>2021-12-02: 17 km</title></circle><circle cx="182.58333333333334" cy="35.096774193548384" fill="#FFFF00" r="3.3125"><title>2021-12-03: 30 km</title></circle><circle cx="182.58333333333334" cy="43.935483870967744" fill="#FFFF00" r="3.3125"><title>2021-12-04: 23 km</title></circle><circle cx="182.58333333333334" cy="52.774193548387096" fill="#555555" r="3.3125"><title>2021-12-05</title></circle><circle cx="182.58333333333334" cy="61.61290322580645" fill="#FFFF00" r="3.3125"><title>2021-12-06: 21 km</title></circle><circle cx="182.58333333333334" cy="70.45161290322581" fill="#FFFF00" r="3.3125"><title>2021-12-07: 18 km</title></circle><circle cx="182.58333333333334" cy="79.29032258064517" fill="#FFFF00" r="3.3125"><title>2021-12-08: 17 km</title></circle><circle cx="182.58333333333334" cy="88.12903225806451" fill="#FFFF00" r="3.3125"><title>2021-12-09: 30 km</title></circle><circle cx="182.58333333333334" cy="96.96774193548387" fill="#555555" r="3.3125"><title>2021-12-10</title></circle><circle cx="182.58333333333334" cy="105.80645161290322" fill="#FFFF00" r="3.3125"><title>2021-12-11: 26 km</title></circle><circle cx="182.58333333333334" cy="114.64516129032258" fill="#FFFF00" r="3.3125"><title>2021-12-12: 46 km</title></circle><circle cx="182.58333333333334" cy="123.48387096774194" fill="#555555" r="3.3125"><title>2021-12-13</title></circle><circle cx="182.58333333333334" cy="132.32258064516128" fill="#555555" r="3.3125"><title>2021-12-14</title></circle><circle cx="182.58333333333334" cy="141.16129032258064" fill="#FFFF00" r="3.3125"><title>2021-12-15: 14 km</title></circle><circle cx="182.58333333333334" cy="149.99999999999997" fill="#FFFF00" r="3.3125"><title>2021-12-16: 25 km</title></circle><circle cx="182.58333333333334" cy="158.83870967741933" fill="#FFFF00" r="3.3125"><title>2021-12-17: 31 km</title></circle><circle cx="182.58333333333334" cy="167.6774193548387" fill="#FFFF00" r="3.3125"><title>2021-12-18: 10 km</title></circle><circle cx="182.58333333333334" cy="176.51612903225805" fill="#FFFF00" r="3.3125"><title>2021-12-19: 27 km</title></circle><circle cx="182.58333333333334" cy="185.35483870967738" fill="#555555" r="3.3125"><title>2021-12-20</title></circle><circle cx="182.58333333333334" cy="194.19354838709674" fill="#555555" r="3.3125"><title>2021-12-21</title></circle><circle cx="182.58333333333334" cy="203.0322580645161" fill="#555555" r="3.3125"><title>2021-12-22</title></circle><circle cx="182.58333333333334" cy="211.87096774193546" fill="#555555" r="3.3125"><title>2021-12-23</title></circle><circle cx="182.58333333333334" cy="220.70967741935482" fill="#FFFF00" r="3.3125"><title>2021-12-24: 30 km</title></circle><circle cx="182.58333333333334" cy="229.54838709677418" fill="#FFFF00" r="3.3125"><title>2021-12-25: 30 km</title></circle><circle cx="182.58333333333334" cy="238.3870967741935" fill="#FFFF00" r="3.3125"><title>2021-12-26: 14 km</title></circle><circle cx="182.58333333333334" cy="247.22580645161287" fill="#555555" r="3.3125"><title>2021-12-27</title></circle><circle cx="182.58333333333334" cy="256.06451612903226" fill="#555555" r="3.3125"><title>2021-12-28</title></circle><circle cx="182.58333333333334" cy="264.90322580645164" fill="#FFFF00" r="3.3125"><title>2021-12-29: 25 km</title></circle><circle cx="182.58333333333334" cy="273.741935483871" fill="#FFFF00" r="3.3125"><title>2021-12-30: 18 km</title></circle><circle cx="182.58333333333334" cy="282.5806451612903" fill="#FFFF00" r="3.3125"><title>2021-12-31: 30 km</title></circle></svg>