<?xml version="1.0" encoding="utf-8" ?>
<svg baseProfile="full" height="200mm" version="1.1" viewBox="0,0,200,200" width="200mm" xmlns="http://www.w3.org/2000/svg" xmlns:ev="http://www.w3.org/2001/xml-events" xmlns:xlink="http://www.w3.org/1999/xlink"><defs /><rect fill="#1a1a1a" height="200" width="200" x="0" y="0" /><rect fill="#1a1a1a" height="200" width="180" x="10" y="0" /><text alignment-baseline="middle" fill="#e1ed5e" style="dominant-baseline: central; font-size:9.0px; font-family:Arial;" text-anchor="middle" x="100.0" y="100.0">2026</text><line stroke="#e1ed5e" stroke-width="0.3" x1="100.0" x2="100.0" y1="15.0" y2="10.0" /><path d="M 100.0 14.0 a86.0,86.0 0 0,1 42.46469731375804,11.215312516191453" fill="none" id="id133" stroke="none" /><text fill="#e1ed5e" style="font-size:6.75px; font-family:Arial;" text-anchor="middle"><textPath startOffset="22.20632615414155" xlink:href="#id133">January</textPath></text><path d="M 100.0 79.0 l 0.0 -8.600149154935792 a29.600149154935792,29.600149154935792 0 0,0 0.5095179096697389,0.004385581509072419 l -0.14803743039721048 8.59887495003528" fill="#ff6809" stroke="none" /><path d="M 100.36148047927253 79.00311137660856 l 0.4505937681051839 -26.173106725815483 a47.176985128635096,47.176985128635096 0 0,0 0.8118336122522165,0.02096726706201711 l -0.9010540155522683 26.161472666611107" fill="#b9ff1f" stroke="none" /><path d="M 100.72285384407766 79.0124445844662 l 0.7571888434461049 -21.9844480900924 a42.99748378271039,42.99748378271039 0 0,0 0.7394731167769952,0.03184326793143869 l -1.1355027926124317 21.968157095636766" fill="#eaff1a" stroke="none" /><path d="M 101.08401301168833 79.027996857942 l 1.0658238272938025 -20.6201036462398 a41.64763073121222,41.64763073121222 0 0,0 0.7156212258921444,0.04316822662261265 l -1.4206071020255588 20.598702150236885" fill="#faff18" stroke="none" /><path d="M 101.80526077348638 79.07773832637324 l 2.229253682427335 -25.83617257165908 a46.93216892458409,46.93216892458409 0 0,0 0.8042718251006614,0.07637530084377787 l -2.6736506346182405 25.793971726300125" fill="#bcff1f" stroke="none" /><path d="M 102.52436894288641 79.15227682838746 l 3.68999889224602 -30.47418073569749 a51.69677154582763,51.69677154582763 0 0,0 0.8825014848987559,0.11457402070206489 l -4.214015105652622 30.406148391831287" fill="#87ff25" stroke="none" /><path d="M 102.88285421437855 79.19881850522331 l 2.9154598158588674 -21.03644661181085 a42.23751379021226,42.23751379021226 0 0,0 0.7193069105215392,0.10600714057482498 l -3.2771357068090623 20.983144987075057" fill="#f3ff19" stroke="none" /><path d="M 103.2404852339499 79.25152402106235 l 2.9897948556066014 -19.14333263845507 a40.375398261330034,40.375398261330034 0 0,0 0.6857488262060791,0.11315443204667873 l -3.3188728879515557 19.08903194346877" fill="#fff417" stroke="none" /><path d="M 103.59715602781102 79.31037775812273 l 4.149588776663544 -23.867028170181037 a45.22507215039054,45.22507215039054 0 0,0 0.7658217288167714,0.13994902593196426 l -4.559805626583216 23.792063662898336" fill="#d0ff1d" stroke="none" /><path d="M 104.307194497241 79.44645832069477 l 3.6751672572200103 -17.537564985299692 a38.91851109836283,38.91851109836283 0 0,0 0.6544931123570716,0.1430468443333174 l -3.97650309373061 17.471704642870506" fill="#ffe215" stroke="none" /><path d="M 104.66035177308747 79.52364482259891 l 3.1003010221843352 -13.62190409181254 a34.97025903534707,34.97025903534707 0 0,0 0.5857956566390424,0.13863890562787462 l -3.334320365785901 13.566519274043797" fill="#ffb010" stroke="none" /><path d="M 105.01212808612495 79.60689891045804 l 5.001626526549945 -20.350372858672557 a41.95600017651471,41.95600017651471 0 0,0 0.6998482822934583,0.17840690992862931 l -5.351183697528429 20.26126295257506" fill="#f6ff19" stroke="none" /><path d="M 105.36241919743992 79.69619591428918 l 7.1557734684863235 -27.094006871979794 a49.023031640263,49.023031640263 0 0,0 0.8140206956958341,0.22250260594359633 l -7.621092053405868 26.966817725209904" fill="#a4ff21" stroke="none" /><path d="M 105.71112130821622 79.79150937346287 l 3.95046484440275 -13.978503952232112 a35.52600238294868,35.52600238294868 0 0,0 0.5870414453363825,0.1713734956300392 l -4.1904965074625595 13.90843212768337" fill="#ffb711" stroke="none" /><path d="M 106.0581310904928 79.89281104454417 l 4.738767930976438 -15.728167776647934 a37.4265389876881,37.4265389876881 0 0,0 0.6152470813029771,0.19116026303016714 l -5.008800384990134 15.644267378735247" fill="#ffd013" stroke="none" /><path d="M 106.74666289553966 80.11325718540242 l 4.121755217829551 -12.14945629133074 a33.82958121883412,33.82958121883412 0 0,0 0.5498402316662466,0.19182846043239432 l -4.330277453559071 12.076706977726138" fill="#ffa10e" stroke="none" /><path d="M 107.08798089147638 80.2323363322302 l 6.599338410213415 -18.404889081990845 a40.552268655399146,40.552268655399146 0 0,0 0.6550498218061974,0.24126037756407503 l -6.915170557792188 18.288565436620445" fill="#fff717" stroke="none" /><path d="M 107.4271985657038 80.35727306442388 l 10.284380662545198 -27.199122154714043 a50.07852698468734,50.07852698468734 0 0,0 0.8036812698027666,0.31181584674580975 l -10.751045097347632 27.01806360407769" fill="#98ff23" stroke="none" /><path d="M 107.76421540070413 80.48803036053334 l 10.364112316961807 -26.04567679179039 a49.031983584131325,49.031983584131325 0 0,0 0.7815140862707688,0.3187992184399323 l -10.810910272820964 25.86341668716688" fill="#a4ff21" stroke="none" /><path d="M 108.09893153111575 80.62456947434976 l 4.430527624130146 -10.59934632654953 a32.488068487710166,32.488068487710166 0 0,0 0.5141101350707961,0.22011512952421822 l -4.6123215169912575 10.521511669062521" fill="#ff8f0d" stroke="none" /><path d="M 108.43124777332544 80.76684994638697 l 1.139686225422312 -2.599823510931838 a23.838655840430697,23.838655840430697 0 0,0 0.37440071275668424,0.16798268629509983 l -1.1842690566457763 2.5798204941202068" fill="#ff1702" stroke="none" /><path d="M 108.76106565485865 80.91482961587045 l 1.4253307775370634 -3.1049511343352214 a24.416473235956047,24.416473235956047 0 0,0 0.38045724028690625,0.17862977568933386 l -1.4785662291235675 3.0799563760058843" fill="#ff1f03" stroke="none" /><path d="M 109.08828744355905 81.06846463323043 l 1.5252008023523336 -3.177099438202964 a24.52423017519086,24.52423017519086 0 0,0 0.378991302204725,0.18596938605070426 l -1.5796633715674906 3.1503748920174273" fill="#ff2103" stroke="none" /><path d="M 110.36928655335952 81.73862282372117 l 19.09952023842538 -33.63621413730294 a59.680571025109224,59.680571025109224 0 0,0 0.8889656011899627,0.51494625496846 l -19.67568257208067 33.30246372494444" fill="#35ff2f" stroke="none" /><line stroke="#e1ed5e" stroke-width="0.3" x1="143.23703022742887" x2="145.7803849466894" y1="26.81831364943548" y2="22.513508569990506" /><path d="M 143.74570117128098 25.957352633546492 a86.0,86.0 0 0,1 28.547481713284135,27.462654790039103" fill="none" id="id134" stroke="none" /><text fill="#e1ed5e" style="font-size:6.75px; font-family:Arial;" text-anchor="middle"><textPath startOffset="19.985693538727396" xlink:href="#id134">February</textPath></text><path d="M 110.68208982089419 81.91981866633111 l 32.04626946268258 -54.24054400100664 a84.0,84.0 0 0,0 1.23855173512945,0.7462135621655417 l -32.97518326402967 53.68088382938249" fill="#4dd2ff" stroke="none" /><path d="M 110.99172775467656 82.1063720568725 l 20.68791491851088 -33.678222453554895 a60.52483385552271,60.52483385552271 0 0,0 0.8830309475801422,0.5529538983652702 l -21.264565018463287 33.31712421386668" fill="#30ff33" stroke="none" /><path d="M 111.2981086023043 82.29822771554956 l 17.836393501343817 -27.945896720469158 a54.15282908962535,54.15282908962535 0 0,0 0.7814329933916534,0.5082657558747792 l -18.31479352051975 27.63473204043485" fill="#6dff28" stroke="none" /><path d="M 111.60114157652 82.49532879139004 l 21.92958247866289 -33.088996328431776 a60.69619963814483,60.69619963814483 0 0,0 0.8659188799500736,0.5846722931208795 l -22.495906053019507 32.70661212301223" fill="#30ff35" stroke="none" /><path d="M 111.90073688211348 82.69761687909136 l 25.343795819955552 -36.84713554788537 a65.72157627642204,65.72157627642204 0 0,0 0.926576771091735,0.6491262417702894 l -25.974303730630936 36.40542446335115" fill="#36ff70" stroke="none" /><path d="M 112.19680574252982 82.90503203632743 l 1.0351111101857158 -1.450805369947303 a22.782215259697278,22.782215259697278 0 0,0 0.317274550311174,0.23051345385484306 l -1.0599309768506786 1.4327726812757848" fill="#ff0801" stroke="none" /><path d="M 112.48926042617603 83.11751280151076 l 1.0843682835580886 -1.465806063844117 a22.823305238074223,22.823305238074223 0 0,0 0.31382462721144655,0.2363662029488305 l -1.109439064527918 1.4469232713894393" fill="#ff0801" stroke="none" /><path d="M 112.77801427241765 83.33499621200491 l 1.4198871267415123 -1.8518076315464749 a23.333510436432636,23.333510436432636 0 0,0 0.3166328975348083,0.24713699887371707 l -1.451552579435751 1.8270922434495336" fill="#ff1001" stroke="none" /><path d="M 113.06298171725822 83.55741782278167 l 37.8891608891175 -47.69168747454398 a81.91047173558096,81.91047173558096 0 0,0 1.0964169155643386,0.8865595617007808 l -38.704481203246324 47.03242181557907" fill="#4ae5ff" stroke="none" /><path d="M 113.34407831869373 83.78471172551755 l 25.20251866590346 -30.62527779368238 a60.66200432461057,60.66200432461057 0 0,0 0.800572251977107,0.6704562378053923 l -25.72594845483969 30.186920398483167" fill="#30ff35" stroke="none" /><path d="M 113.6212207817346 84.01681056812373 l 22.993613674437242 -26.980788944756377 a56.4495309121398,56.4495309121398 0 0,0 0.7341293788374553,0.6366297630968143 l -23.45463685192146 26.58099418823989" fill="#55ff2b" stroke="none" /><path d="M 113.89432698308785 84.25364557470407 l 12.30561207498941 -13.945873692827256 a39.59880323021932,39.59880323021932 0 0,0 0.5072210939655911,0.4553881062689291 l -12.543844156550993 13.73198657778903" fill="#ffeb16" stroke="none" /><path d="M 114.16331599549186 84.49514656593476 l 2.334331478983391 -2.5554374031958687 a24.461121751025992,24.461121751025992 0 0,0 0.30843391396219405,0.2866557086855884 l -2.377973276740432 2.5148771084356394" fill="#ff2003" stroke="none" /><path d="M 114.68862486808459 84.99185889309783 l 17.627594365762526 -18.011040924016488 a46.2017792683465,46.2017792683465 0 0,0 0.5635829436724746,0.5611627394062753 l -17.935013109602323 17.704942333960094" fill="#c4ff1e" stroke="none" /><path d="M 114.94478906791727 85.2469230424477 l 7.9887518018910475 -7.886271903368404 a32.22557080446582,32.22557080446582 0 0,0 0.3863013235261807,0.39811747073873044 l -8.123317389120338 7.747590237079558" fill="#ff8c0c" stroke="none" /><path d="M 117.2510076193507 88.02491185347247 l 33.45664726452142 -23.224515861352504 a61.72745245134813,61.72745245134813 0 0,0 0.5983904340805262,0.8780641245118432 l -33.85146216427068 22.645173713570255" fill="#31ff42" stroke="none" /><path d="M 117.45458315368197 88.32363383020206 l 32.83468898401166 -21.964996143025992 a60.50414986099465,60.50414986099465 0 0,0 0.5716298527252228,0.870631482970491 l -33.20791547209481 21.396546596077826" fill="#30ff33" stroke="none" /><path d="M 117.65298651832404 88.62581576622439 l 34.710004597215644 -22.364373678874305 a62.2910357001015,62.2910357001015 0 0,0 0.5729956713579808,0.9063415468802082 l -35.089827864819576 21.763584484279892" fill="#32ff48" stroke="none" /><line stroke="#e1ed5e" stroke-width="0.3" x1="172.23445277983987" x2="176.4835382374775" y1="55.19839476539836" y2="52.563006222186495" /><path d="M 173.08426987136738 54.67131705675599 a86.0,86.0 0 0,1 12.851231095245387,41.99856678651699" fill="none" id="id135" stroke="none" /><text fill="#e1ed5e" style="font-size:6.75px; font-family:Arial;" text-anchor="middle"><textPath startOffset="22.20632615414155" xlink:href="#id135">March</textPath></text><path d="M 117.84615892207809 88.93136811851018 l 18.07644769097593 -11.211462706907286 a42.27098627598076,42.27098627598076 0 0,0 0.3781928815293633,0.6216496581116209 l -18.26675637079152 10.898645275588583" fill="#f3ff19" stroke="none" /><path d="M 118.03404312379186 89.2402003453031 l 22.537580039088546 -13.446781969949086 a47.24420811085125,47.24420811085125 0 0,0 0.41066538704506617,0.7019602656010796 l -22.76570510060394 13.05684229199411" fill="#b8ff1f" stroke="none" /><path d="M 118.21658344932153 89.55222093294921 l 29.02202954977669 -16.645039595763475 a54.456472353382466,54.456472353382466 0 0,0 0.45935942664626583,0.8171491633014675 l -29.30424661771539 16.143006922527213" fill="#69ff28" stroke="none" /><path d="M 118.3937258080291 89.86733742301442 l 29.64729962841683 -16.331986601779548 a54.84813379815542,54.84813379815542 0 0,0 0.4484276355297746,0.8308683042818542 l -29.92403536316507 15.819237314165235" fill="#65ff29" stroke="none" /><path d="M 118.56541770881063 90.18545643968196 l 32.06615735137711 -16.951662659749825 a57.27116367327126,57.27116367327126 0 0,0 0.4532346264019383,0.8755050365244049 l -32.353201410939164 16.397184900965076" fill="#4dff2c" stroke="none" /><path d="M 118.73160827565052 90.50648371742162 l 17.106278999791282 -8.669770146215996 a40.177843872732886,40.177843872732886 0 0,0 0.30734134853694295,0.6195814044271792 l -17.252980361281633 8.374029153289866" fill="#fff216" stroke="none" /><path d="M 119.04729006885535 91.15688171328212 l 5.729921775084432 -2.660240687653746 a27.31734786637836,27.31734786637836 0 0,0 0.19434040371158018,0.4282033187817615 l -5.77486449575936 2.5612153600299217" fill="#ff4906" stroke="none" /><path d="M 119.34039704204932 91.81776055985345 l 4.763979923964342 -2.0154717786391956 a26.172777900357442,26.172777900357442 0 0,0 0.17196551162826343,0.4164281265898679 l -4.797967122478804 1.9331690815960245" fill="#ff3805" stroke="none" /><path d="M 119.47837535516314 92.15188598940014 l 33.81697295531869 -13.625338582273674 a57.45870967741935,57.45870967741935 0 0,0 0.36173390642045705,0.9205733356367601 l -34.04650041162085 13.041216241741129" fill="#4bff2c" stroke="none" /><path d="M 119.7369772167798 92.82701384747503 l 39.88033009349541 -14.493660927751721 a63.43238074224439,63.43238074224439 0 0,0 0.36412276549412986,1.0294240913508377 l -40.12390593979935 13.805039209974268" fill="#33ff56" stroke="none" /><path d="M 119.85752413597 93.16781622104841 l 33.51442879633846 -11.530981164384038 a56.44263624729712,56.44263624729712 0 0,0 0.3081840675605082,0.9214311355974 l -33.70795015767074 10.952376925864323" fill="#55ff2b" stroke="none" /><path d="M 119.97218684219823 93.5106431181261 l 23.40455446805178 -7.604600728225896 a45.6090048982834,45.6090048982834 0 0,0 0.2361775796893973,0.7487474689590399 l -23.531987531509383 7.200603092840438" fill="#cbff1d" stroke="none" /><path d="M 120.18372546131832 94.20196356495316 l 19.3603441822282 -5.561509503225006 a41.14331935925158,41.14331935925158 0 0,0 0.18967702937088657,0.6823691939357874 l -19.45320798216545 5.227429005870267" fill="#fffe18" stroke="none" /><path d="M 120.28053869075195 94.5502522615342 l 30.88088567304342 -8.298252794203728 a52.97639909977495,52.97639909977495 0 0,0 0.22906911250296952,0.8826967336458057 l -31.01915111741669 7.765459635009073" fill="#79ff26" stroke="none" /><path d="M 120.37134235888165 94.90015583598534 l 24.348037665324014 -6.0953861363276545 a46.099415736287014,46.099415736287014 0 0,0 0.18608182769416023,0.7714293096001918 l -24.449352293278995 5.675371595068056" fill="#c5ff1e" stroke="none" /><path d="M 120.45610955862082 95.25157060432595 l 17.95873281176509 -4.168719108003784 a39.43622258505803,39.43622258505803 0 0,0 0.14780247966100393,0.6625695351664396 l -18.02782967842813 3.8589714032873803" fill="#ffe915" stroke="none" /><path d="M 120.53481517161879 95.60439243477599 l 1.2374715854711884 -0.2648886497096295 a22.26550461144698,22.26550461144698 0 0,0 0.07699698198529346,0.3754646290818662 l -1.2418478633714787 0.2435483644643515" fill="#ff0000" stroke="none" /><path d="M 120.78858239683441 97.02765380044208 l 40.9086386237792 -5.849106698155328 a62.32467499227749,62.32467499227749 0 0,0 0.14270570147851067,1.063323232691149 l -41.00326032431554 5.144065123399515" fill="#32ff49" stroke="none" /><path d="M 120.83666639777658 97.38593545837742 l 39.33012961910737 -4.934162465916292 a60.638429019019455,60.638429019019455 0 0,0 0.12101595974304931,1.0367908398772807 l -39.409235931854006 4.256427887714159" fill="#30ff34" stroke="none" /><path d="M 120.87857604477298 97.74499172005257 l 29.240417649713027 -3.1581360609949956 a50.410471735580956,50.410471735580956 0 0,0 0.08575271171951059,0.8635181043819495 l -29.29044748711477 2.654342425908611" fill="#95ff23" stroke="none" /><path d="M 120.91429891909075 98.10471618934814 l 6.44634049451267 -0.5841766355384269 a27.47275583601783,27.47275583601783 0 0,0 0.038626061759972116,0.47133578969839396 l -6.455441040092137 0.4731269286322642" fill="#ff4b06" stroke="none" /><line stroke="#e1ed5e" stroke-width="0.3" x1="184.98032266829074" x2="189.97916517819016" y1="98.17113171792111" y2="98.06355123074" /><path d="M 185.9800911702706 98.14961562048488 a86.0,86.0 0 0,1 -9.607161424134198,41.387399972396054" fill="none" id="id136" stroke="none" /><text fill="#e1ed5e" style="font-size:6.75px; font-family:Arial;" text-anchor="middle"><textPath startOffset="21.466115282336823" xlink:href="#id136">April</textPath></text><path d="M 120.99513854157772 99.54816195383933 l 6.124658344544566 -0.13180925928734966 a27.126076519129782,27.126076519129782 0 0,0 0.006028438382813429,0.466909196321089 l -6.1260197900450954 0.026363804905797924" fill="#ff4606" stroke="none" /><path d="M 120.99980553446 99.90962569577887 l 6.127910245156977 -0.026371940627108167 a27.12796699174794,27.12796699174794 0 0,0 -0.0020096691323492886,0.4669763306247705 l -6.127456278735125 -0.07911386820134703" fill="#ff4606" stroke="none" /><path d="M 120.92983693683757 101.71520430193887 l 5.996715541085746 0.49143203191759177 a27.016818322227618,27.016818322227618 0 0,0 -0.0419730764319802,0.46316940086685354 l -5.98736786837669 -0.5945828213330159" fill="#ff4406" stroke="none" /><path d="M 120.89721153311464 102.0752229133903 l 6.670914449586955 0.6624632428643435 a27.703727108247648,27.703727108247648 0 0,0 -0.05120928219929014,0.4741343533430579 l -6.658522865886614 -0.777193918092193" fill="#ff4e07" stroke="none" /><path d="M 120.5718875245553 104.21870165774334 l 4.735555729947561 0.9711260954746833 a25.83410529102864,25.83410529102864 0 0,0 -0.09308392431141109,0.43485710514886916 l -4.718137766911706 -1.0524970200397215" fill="#ff3404" stroke="none" /><path d="M 120.49622156327973 104.57218783832717 l 6.2299432661655265 1.389742531182526 a27.383069590927143,27.383069590927143 0 0,0 -0.10658460054507966,0.45916366957004084 l -6.205098099689894 -1.4967748581011318" fill="#ff4906" stroke="none" /><path d="M 120.41448212921028 104.9243191809786 l 6.991066021602026 1.6863636455613762 a28.191580248003177,28.191580248003177 0 0,0 -0.11785246561512006,0.47076201696995096 l -6.961002241691845 -1.8064535019287231" fill="#ff5507" stroke="none" /><path d="M 120.32669344350535 105.2749913415812 l 6.942972739983426 1.8017746560717092 a28.17295353250077,28.17295353250077 0 0,0 -0.1258551888579819,0.4683539770199993 l -6.910929474783666 -1.9210195662672567" fill="#ff5407" stroke="none" /><path d="M 120.13307415673323 105.97154293290107 l 12.027977018232598 3.567541677995676 a33.545899121839284,33.545899121839284 0 0,0 -0.1689646675857443,0.5521863099004511 l -11.96478557814072 -3.774054960448184" fill="#ff9d0e" stroke="none" /><path d="M 119.26925614724726 108.34839909993367 l 18.49221048939998 8.011744315700788 a41.15316093729315,41.15316093729315 0 0,0 -0.28720774413566846,0.6475776423958413 l -18.35156166053304 -8.328870294589318" fill="#fffe18" stroke="none" /><path d="M 119.12269723197855 108.67885076344098 l 6.166620502197417 2.7987254310468144 a27.772006531044525,27.772006531044525 0 0,0 -0.20131449215785518,0.433613506330036 l -6.11753139319973 -2.904459004655681" fill="#ff4f07" stroke="none" /><path d="M 118.97047184881838 109.00673069616215 l 5.399715727894237 2.56365712906629 a26.97739640792551,26.97739640792551 0 0,0 -0.2027759127621403,0.41777844053143254 l -5.354786558517382 -2.656224525562998" fill="#ff4406" stroke="none" /><path d="M 118.81262510543309 109.33194174019688 l 6.38810699754181 3.168799781907513 a28.13086271567892,28.13086271567892 0 0,0 -0.2189134764312427,0.4319370573257321 l -6.332614851324299 -3.2782910509359393" fill="#ff5407" stroke="none" /><line stroke="#e1ed5e" stroke-width="0.3" x1="174.80103733775053" x2="179.2010983576182" y1="140.37084112569926" y2="142.7455964860345" /><path d="M 175.68104954172406 140.8457921977663 a86.0,86.0 0 0,1 -30.038265399797805,32.042727171017184" fill="none" id="id137" stroke="none" /><text fill="#e1ed5e" style="font-size:6.75px; font-family:Arial;" text-anchor="middle"><textPath startOffset="22.206326154141568" xlink:href="#id137">May</textPath></text><path d="M 118.48025628344425 109.97397251340804 l 7.435340816548268 4.0129251345129 a29.449133754026743,29.449133754026743 0 0,0 -0.24460112609143284,0.4440220930557709 l -7.365163281005326 -4.140317745966476" fill="#ff6609" stroke="none" /><path d="M 118.12598468904814 110.60418214915192 l 6.25088511838256 3.656933707375468 a28.24201138519924,28.24201138519924 0 0,0 -0.2490933627279667,0.41749480375552667 l -6.1870108799563655 -3.763990605017099" fill="#ff5507" stroke="none" /><path d="M 117.94076556474637 110.91462005526583 l 8.187848406153838 4.981239741457288 a30.584028948413575,30.584028948413575 0 0,0 -0.2774923321948302,0.4474059949801584 l -8.100891434291045 -5.12144206780272" fill="#ff760a" stroke="none" /><path d="M 117.35343817320211 111.8261652097733 l 6.052468161797079 4.124686283715123 a28.324302546224793,28.324302546224793 0 0,0 -0.27803552534018927,0.4005309111219001 l -5.980571729294754 -4.228258457024043" fill="#ff5708" stroke="none" /><line stroke="#e1ed5e" stroke-width="0.3" x1="143.8653032363475" x2="146.44561519142675" y1="172.8068346515853" y2="177.08958963109032" /><path d="M 144.38136562736335 173.6633856474863 a86.0,86.0 0 0,1 -40.68145358897372,12.25698825130547" fill="none" id="id138" stroke="none" /><text fill="#e1ed5e" style="font-size:6.75px; font-family:Arial;" text-anchor="middle"><textPath startOffset="21.466115282336833" xlink:href="#id138">June</textPath></text><line stroke="#e1ed5e" stroke-width="0.3" x1="102.19456741930631" x2="102.32365962044197" y1="184.97166512339345" y2="189.96999836594603" /><path d="M 102.22038585953345 185.97133177190398 a86.0,86.0 0 0,1 -42.740103519485714,-10.115201625700543" fill="none" id="id139" stroke="none" /><text fill="#e1ed5e" style="font-size:6.75px; font-family:Arial;" text-anchor="middle"><textPath startOffset="22.20632615414155" xlink:href="#id139">July</textPath></text><line stroke="#e1ed5e" stroke-width="0.3" x1="58.666819895761336" x2="56.23545636021788" y1="174.27360380694188" y2="178.64263932499728" /><path d="M 58.180547188652646 175.14741091055294 a86.0,86.0 0 0,1 -31.652253787137756,-30.449443065178592" fill="none" id="id140" stroke="none" /><text fill="#e1ed5e" style="font-size:6.75px; font-family:Arial;" text-anchor="middle"><textPath startOffset="22.20632615414155" xlink:href="#id140">August</textPath></text><line stroke="#e1ed5e" stroke-width="0.3" x1="26.63291911575756" x2="22.317208475507996" y1="142.92168965132927" y2="145.44649492493687" /><path d="M 25.769776987707644 143.4266507060508 a86.0,86.0 0 0,1 -11.730757126820373,-40.83630448921669" fill="none" id="id141" stroke="none" /><text fill="#e1ed5e" style="font-size:6.75px; font-family:Arial;" text-anchor="middle"><textPath startOffset="21.46611528233685" xlink:href="#id141">September</textPath></text><line stroke="#e1ed5e" stroke-width="0.3" x1="15.007084014347285" x2="10.007500721073583" y1="101.09737516637583" y2="101.16192664675087" /><path d="M 14.007167355692545 101.11028546245083 a86.0,86.0 0 0,1 10.666146001902534,-42.60595125391555" fill="none" id="id142" stroke="none" /><text fill="#e1ed5e" style="font-size:6.75px; font-family:Arial;" text-anchor="middle"><textPath startOffset="22.20632615414155" xlink:href="#id142">October</textPath></text><line stroke="#e1ed5e" stroke-width="0.3" x1="26.266209847984243" x2="21.928928074336255" y1="57.711370442889674" y2="55.22380399835377" /><path d="M 25.398753493254645 57.213857153982495 a86.0,86.0 0 0,1 29.58750427330803,-30.492523968695096" fill="none" id="id143" stroke="none" /><text fill="#e1ed5e" style="font-size:6.75px; font-family:Arial;" text-anchor="middle"><textPath startOffset="21.46611528233685" xlink:href="#id143">November</textPath></text><line stroke="#e1ed5e" stroke-width="0.3" x1="56.762969772571076" x2="54.21961505331055" y1="26.818313649435495" y2="22.513508569990535" /><path d="M 56.25429882871897 25.957352633546506 a86.0,86.0 0 0,1 42.265352541879196,-11.944610805530505" fill="none" id="id144" stroke="none" /><text fill="#e1ed5e" style="font-size:6.75px; font-family:Arial;" text-anchor="middle"><textPath startOffset="22.20632615414155" xlink:href="#id144">December</textPath></text></svg>