<?xml version="1.0" encoding="utf-8" ?>
<svg baseProfile="full" height="300mm" version="1.1" viewBox="0,0,200,300" width="200mm" xmlns="http://www.w3.org/2000/svg" xmlns:ev="http://www.w3.org/2001/xml-events" xmlns:xlink="http://www.w3.org/1999/xlink"><defs /><rect fill="#222222" height="300" width="200" x="0" y="0" /><text fill="#555555" style="font-size:6px; font-family:Arial;" x="11" y="19">Running for 4144 Days</text><text fill="#555555" style="font-size:6px; font-family:Arial;" x="11" y="39">Races</text><text fill="#555555" style="font-size:8px; font-family:Arial;" x="11" y="59">1</text><text fill="#FFFFFF" style="font-size:10px; font-family:Arial; font-weight:bold;" x="23" y="59">Full</text><text fill="#555555" style="font-size:6px; font-family:Arial;" x="49" y="59">6x</text><text fill="#555555" style="font-size:8px; font-family:Arial;" x="11" y="77">2</text><text fill="#FFFFFF" style="font-size:10px; font-family:Arial; font-weight:bold;" x="23" y="77">Half</text><text fill="#555555" style="font-size:6px; font-family:Arial;" x="49" y="77">18x</text><text fill="#555555" style="font-size:8px; font-family:Arial;" x="11" y="95">3</text><text fill="#FFFFFF" style="font-size:10px; font-family:Arial; font-weight:bold;" x="23" y="95">10K</text><text fill="#555555" style="font-size:6px; font-family:Arial;" x="49" y="95">69x</text><text fill="#555555" style="font-size:6px; font-family:Arial;" x="11" y="133">Stats</text><text fill="#555555" style="font-size:5px; font-family:Arial;" x="11" y="139">Distance</text><text fill="#FFFFFF" style="font-size:10px; font-family:Arial; font-weight:bold;" x="11" y="150">2094</text><text fill="#555555" style="font-size:6px; font-family:Arial;" x="35" y="150">km</text><text fill="#555555" style="font-size:5px; font-family:Arial;" x="53" y="139">Runs</text><text fill="#FFFFFF" style="font-size:10px; font-family:Arial; font-weight:bold;" x="53" y="150">178</text><text fill="#555555" style="font-size:5px; font-family:Arial;" x="11" y="167">Avg Pace</text><text fill="#FFFFFF" style="font-size:10px; font-family:Arial; font-weight:bold;" x="11" y="178">7'51"</text><text fill="#555555" style="font-size:5px; font-family:Arial;" x="53" y="167">Streak</text><text fill="#FFFFFF" style="font-size:10px; font-family:Arial; font-weight:bold;" x="53" y="178">8</text><text fill="#555555" style="font-size:6px; font-family:Arial;" x="59" y="178">d</text><text fill="#555555" style="font-size:5px; font-family:Arial;" x="11" y="195">Time</text><text fill="#FFFFFF" style="font-size:10px; font-family:Arial; font-weight:bold;" x="11" y="206">274</text><text fill="#555555" style="font-size:6px; font-family:Arial;" x="29" y="206">h</text><text fill="#555555" style="font-size:5px; font-family:Arial;" x="53" y="195">Longest</text><text fill="#FFFFFF" style="font-size:10px; font-family:Arial; font-weight:bold;" x="53" y="206">109.0</text><text fill="#555555" style="font-size:5px; font-family:Arial;" x="11" y="252.0645161290322">Runner</text><text fill="#FFFFFF" style="font-size:8px; font-family:Arial; font-weight:bold;" x="11" y="262.0645161290322">Edison</text><text fill="#555555" style="font-size:7px; font-family:Arial;" x="11" y="285.5806451612903">running_page/2019</text><circle cx="85.41666666666667" cy="17.419354838709676" fill="#555555" r="3.3125"><title>2019-01-01</title></circle><circle cx="85.41666666666667" cy="26.25806451612903" fill="#4eb6d9" r="3.3125"><title>2019-01-02: 7 km</title></circle><circle cx="85.41666666666667" cy="35.096774193548384" fill="#555555" r="3.3125"><title>2019-01-03</title></circle><circle cx="85.41666666666667" cy="43.935483870967744" fill="#555555" r="3.3125"><title>2019-01-04</title></circle><circle cx="85.41666666666667" cy="52.774193548387096" fill="#555555" r="3.3125"><title>2019-01-05</title></circle><circle cx="85.41666666666667" cy="61.61290322580645" fill="#FFFF00" r="3.3125"><title>2019-01-06: 45 km</title></circle><circle cx="85.41666666666667" cy="70.45161290322581" fill="#555555" r="3.3125"><title>2019-01-07</title></circle><circle cx="85.41666666666667" cy="79.29032258064517" fill="#555555" r="3.3125"><title>2019-01-08</title></circle><circle cx="85.41666666666667" cy="88.12903225806451" fill="#555555" r="3.3125"><title>2019-01-09</title></circle><circle cx="85.41666666666667" cy="96.96774193548387" fill="#555555" r="3.3125"><title>2019-01-10</title></circle><circle cx="85.41666666666667" cy="105.80645161290322" fill="#555555" r="3.3125"><title>2019-01-11</title></circle><circle cx="85.41666666666667" cy="114.64516129032258" fill="#FFFF00" r="3.3125"><title>2019-01-12: 19 km</title></circle><circle cx="85.41666666666667" cy="123.48387096774194" fill="#555555" r="3.3125"><title>2019-01-13</title></circle><circle cx="85.41666666666667" cy="132.32258064516128" fill="#555555" r="3.3125"><title>2019-01-14</title></circle><circle cx="85.41666666666667" cy="141.16129032258064" fill="#4ec1e8" r="3.3125"><title>2019-01-15: 8 km</title></circle><circle cx="85.41666666666667" cy="149.99999999999997" fill="#555555" r="3.3125"><title>2019-01-16</title></circle><circle cx="85.41666666666667" cy="158.83870967741933" fill="#555555" r="3.3125"><title>2019-01-17</title></circle><circle cx="85.41666666666667" cy="167.6774193548387" fill="#555555" r="3.3125"><title>2019-01-18</title></circle><circle cx="85.41666666666667" cy="176.51612903225805" fill="#FFFF00" r="3.3125"><title>2019-01-19: 21 km</title></circle><circle cx="85.41666666666667" cy="185.35483870967738" fill="#555555" r="3.3125"><title>2019-01-20</title></circle><circle cx="85.41666666666667" cy="194.19354838709674" fill="#555555" r="3.3125"><title>2019-01-21</title></circle><circle cx="85.41666666666667" cy="203.0322580645161" fill="#555555" r="3.3125"><title>2019-01-22</title></circle><circle cx="85.41666666666667" cy="211.87096774193546" fill="#555555" r="3.3125"><title>2019-01-23</title></circle><circle cx="85.41666666666667" cy="220.70967741935482" fill="#555555" r="3.3125"><title>2019-01-24</title></circle><circle cx="85.41666666666667" cy="229.54838709677418" fill="#555555" r="3.3125"><title>2019-01-25</title></circle><circle cx="85.41666666666667" cy="238.3870967741935" fill="#555555" r="3.3125"><title>2019-01-26</title></circle><circle cx="85.41666666666667" cy="247.22580645161287" fill="#FFFF00" r="3.3125"><title>2019-01-27: 26 km</title></circle><circle cx="85.41666666666667" cy="256.06451612903226" fill="#555555" r="3.3125"><title>2019-01-28</title></circle><circle cx="85.41666666666667" cy="264.90322580645164" fill="#555555" r="3.3125"><title>2019-01-29</title></circle><circle cx="85.41666666666667" cy="273.741935483871" fill="#555555" r="3.3125"><title>2019-01-30</title></circle><circle cx="85.41666666666667" cy="282.5806451612903" fill="#555555" r="3.3125"><title>2019-01-31</title></circle><circle cx="94.25" cy="17.419354838709676" fill="#555555" r="3.3125"><title>2019-02-01</title></circle><circle cx="94.25" cy="26.25806451612903" fill="#555555" r="3.3125"><title>2019-02-02</title></circle><circle cx="94.25" cy="35.096774193548384" fill="#555555" r="3.3125"><title>2019-02-03</title></circle><circle cx="94.25" cy="43.935483870967744" fill="#555555" r="3.3125"><title>2019-02-04</title></circle><circle cx="94.25" cy="52.774193548387096" fill="#FFFF00" r="3.3125"><title>2019-02-05: 10 km</title></circle><circle cx="94.25" cy="61.61290322580645" fill="#FFFF00" r="3.3125"><title>2019-02-06: 45 km</title></circle><circle cx="94.25" cy="70.45161290322581" fill="#555555" r="3.3125"><title>2019-02-07</title></circle><circle cx="94.25" cy="79.29032258064517" fill="#555555" r="3.3125"><title>2019-02-08</title></circle><circle cx="94.25" cy="88.12903225806451" fill="#555555" r="3.3125"><title>2019-02-09</title></circle><circle cx="94.25" cy="96.96774193548387" fill="#555555" r="3.3125"><title>2019-02-10</title></circle><circle cx="94.25" cy="105.80645161290322" fill="#555555" r="3.3125"><title>2019-02-11</title></circle><circle cx="94.25" cy="114.64516129032258" fill="#555555" r="3.3125"><title>2019-02-12</title></circle><circle cx="94.25" cy="123.48387096774194" fill="#555555" r="3.3125"><title>2019-02-13</title></circle><circle cx="94.25" cy="132.32258064516128" fill="#555555" r="3.3125"><title>2019-02-14</title></circle><circle cx="94.25" cy="141.16129032258064" fill="#555555" r="3.3125"><title>2019-02-15</title></circle><circle cx="94.25" cy="149.99999999999997" fill="#555555" r="3.3125"><title>2019-02-16</title></circle><circle cx="94.25" cy="158.83870967741933" fill="#FFFF00" r="3.3125"><title>2019-02-17: 21 km</title></circle><circle cx="94.25" cy="167.6774193548387" fill="#555555" r="3.3125"><title>2019-02-18</title></circle><circle cx="94.25" cy="176.51612903225805" fill="#555555" r="3.3125"><title>2019-02-19</title></circle><circle cx="94.25" cy="185.35483870967738" fill="#555555" r="3.3125"><title>2019-02-20</title></circle><circle cx="94.25" cy="194.19354838709674" fill="#555555" r="3.3125"><title>2019-02-21</title></circle><circle cx="94.25" cy="203.0322580645161" fill="#555555" r="3.3125"><title>2019-02-22</title></circle><circle cx="94.25" cy="211.87096774193546" fill="#555555" r="3.3125"><title>2019-02-23</title></circle><circle cx="94.25" cy="220.70967741935482" fill="#555555" r="3.3125"><title>2019-02-24</title></circle><circle cx="94.25" cy="229.54838709677418" fill="#555555" r="3.3125"><title>2019-02-25</title></circle><circle cx="94.25" cy="238.3870967741935" fill="#555555" r="3.3125"><title>2019-02-26</title></circle><circle cx="94.25" cy="247.22580645161287" fill="#555555" r="3.3125"><title>2019-02-27</title></circle><circle cx="94.25" cy="256.06451612903226" fill="#555555" r="3.3125"><title>2019-02-28</title></circle><circle cx="103.08333333333334" cy="17.419354838709676" fill="#555555" r="3.3125"><title>2019-03-01</title></circle><circle cx="103.08333333333334" cy="26.25806451612903" fill="#555555" r="3.3125"><title>2019-03-02</title></circle><circle cx="103.08333333333334" cy="35.096774193548384" fill="#FFFF00" r="3.3125"><title>2019-03-03: 18 km</title></circle><circle cx="103.08333333333334" cy="43.935483870967744" fill="#555555" r="3.3125"><title>2019-03-04</title></circle><circle cx="103.08333333333334" cy="52.774193548387096" fill="#555555" r="3.3125"><title>2019-03-05</title></circle><circle cx="103.08333333333334" cy="61.61290322580645" fill="#555555" r="3.3125"><title>2019-03-06</title></circle><circle cx="103.08333333333334" cy="70.45161290322581" fill="#555555" r="3.3125"><title>2019-03-07</title></circle><circle cx="103.08333333333334" cy="79.29032258064517" fill="#555555" r="3.3125"><title>2019-03-08</title></circle><circle cx="103.08333333333334" cy="88.12903225806451" fill="#555555" r="3.3125"><title>2019-03-09</title></circle><circle cx="103.08333333333334" cy="96.96774193548387" fill="#FFFF00" r="3.3125"><title>2019-03-10: 20 km</title></circle><circle cx="103.08333333333334" cy="105.80645161290322" fill="#555555" r="3.3125"><title>2019-03-11</title></circle><circle cx="103.08333333333334" cy="114.64516129032258" fill="#555555" r="3.3125"><title>2019-03-12</title></circle><circle cx="103.08333333333334" cy="123.48387096774194" fill="#555555" r="3.3125"><title>2019-03-13</title></circle><circle cx="103.08333333333334" cy="132.32258064516128" fill="#555555" r="3.3125"><title>2019-03-14</title></circle><circle cx="103.08333333333334" cy="141.16129032258064" fill="#555555" r="3.3125"><title>2019-03-15</title></circle><circle cx="103.08333333333334" cy="149.99999999999997" fill="#555555" r="3.3125"><title>2019-03-16</title></circle><circle cx="103.08333333333334" cy="158.83870967741933" fill="#FFFF00" r="3.3125"><title>2019-03-17: 16 km</title></circle><circle cx="103.08333333333334" cy="167.6774193548387" fill="#555555" r="3.3125"><title>2019-03-18</title></circle><circle cx="103.08333333333334" cy="176.51612903225805" fill="#555555" r="3.3125"><title>2019-03-19</title></circle><circle cx="103.08333333333334" cy="185.35483870967738" fill="#555555" r="3.3125"><title>2019-03-20</title></circle><circle cx="103.08333333333334" cy="194.19354838709674" fill="#555555" r="3.3125"><title>2019-03-21</title></circle><circle cx="103.08333333333334" cy="203.0322580645161" fill="#555555" r="3.3125"><title>2019-03-22</title></circle><circle cx="103.08333333333334" cy="211.87096774193546" fill="#555555" r="3.3125"><title>2019-03-23</title></circle><circle cx="103.08333333333334" cy="220.70967741935482" fill="#555555" r="3.3125"><title>2019-03-24</title></circle><circle cx="103.08333333333334" cy="229.54838709677418" fill="#555555" r="3.3125"><title>2019-03-25</title></circle><circle cx="103.08333333333334" cy="238.3870967741935" fill="#555555" r="3.3125"><title>2019-03-26</title></circle><circle cx="103.08333333333334" cy="247.22580645161287" fill="#555555" r="3.3125"><title>2019-03-27</title></circle><circle cx="103.08333333333334" cy="256.06451612903226" fill="#555555" r="3.3125"><title>2019-03-28</title></circle><circle cx="103.08333333333334" cy="264.90322580645164" fill="#FFFF00" r="3.3125"><title>2019-03-29: 10 km</title></circle><circle cx="103.08333333333334" cy="273.741935483871" fill="#555555" r="3.3125"><title>2019-03-30</title></circle><circle cx="103.08333333333334" cy="282.5806451612903" fill="#555555" r="3.3125"><title>2019-03-31</title></circle><circle cx="111.91666666666667" cy="17.419354838709676" fill="#555555" r="3.3125"><title>2019-04-01</title></circle><circle cx="111.91666666666667" cy="26.25806451612903" fill="#4ebfe5" r="3.3125"><title>2019-04-02: 8 km</title></circle><circle cx="111.91666666666667" cy="35.096774193548384" fill="#555555" r="3.3125"><title>2019-04-03</title></circle><circle cx="111.91666666666667" cy="43.935483870967744" fill="#555555" r="3.3125"><title>2019-04-04</title></circle><circle cx="111.91666666666667" cy="52.774193548387096" fill="#FFFF00" r="3.3125"><title>2019-04-05: 14 km</title></circle><circle cx="111.91666666666667" cy="61.61290322580645" fill="#555555" r="3.3125"><title>2019-04-06</title></circle><circle cx="111.91666666666667" cy="70.45161290322581" fill="#555555" r="3.3125"><title>2019-04-07</title></circle><circle cx="111.91666666666667" cy="79.29032258064517" fill="#5093aa" r="3.3125"><title>2019-04-08: 5 km</title></circle><circle cx="111.91666666666667" cy="88.12903225806451" fill="#555555" r="3.3125"><title>2019-04-09</title></circle><circle cx="111.91666666666667" cy="96.96774193548387" fill="#555555" r="3.3125"><title>2019-04-10</title></circle><circle cx="111.91666666666667" cy="105.80645161290322" fill="#555555" r="3.3125"><title>2019-04-11</title></circle><circle cx="111.91666666666667" cy="114.64516129032258" fill="#555555" r="3.3125"><title>2019-04-12</title></circle><circle cx="111.91666666666667" cy="123.48387096774194" fill="#FFFF00" r="3.3125"><title>2019-04-13: 26 km</title></circle><circle cx="111.91666666666667" cy="132.32258064516128" fill="#555555" r="3.3125"><title>2019-04-14</title></circle><circle cx="111.91666666666667" cy="141.16129032258064" fill="#555555" r="3.3125"><title>2019-04-15</title></circle><circle cx="111.91666666666667" cy="149.99999999999997" fill="#555555" r="3.3125"><title>2019-04-16</title></circle><circle cx="111.91666666666667" cy="158.83870967741933" fill="#555555" r="3.3125"><title>2019-04-17</title></circle><circle cx="111.91666666666667" cy="167.6774193548387" fill="#555555" r="3.3125"><title>2019-04-18</title></circle><circle cx="111.91666666666667" cy="176.51612903225805" fill="#555555" r="3.3125"><title>2019-04-19</title></circle><circle cx="111.91666666666667" cy="185.35483870967738" fill="#FFFF00" r="3.3125"><title>2019-04-20: 61 km</title></circle><circle cx="111.91666666666667" cy="194.19354838709674" fill="#555555" r="3.3125"><title>2019-04-21</title></circle><circle cx="111.91666666666667" cy="203.0322580645161" fill="#555555" r="3.3125"><title>2019-04-22</title></circle><circle cx="111.91666666666667" cy="211.87096774193546" fill="#555555" r="3.3125"><title>2019-04-23</title></circle><circle cx="111.91666666666667" cy="220.70967741935482" fill="#555555" r="3.3125"><title>2019-04-24</title></circle><circle cx="111.91666666666667" cy="229.54838709677418" fill="#555555" r="3.3125"><title>2019-04-25</title></circle><circle cx="111.91666666666667" cy="238.3870967741935" fill="#555555" r="3.3125"><title>2019-04-26</title></circle><circle cx="111.91666666666667" cy="247.22580645161287" fill="#FFFF00" r="3.3125"><title>2019-04-27: 15 km</title></circle><circle cx="111.91666666666667" cy="256.06451612903226" fill="#555555" r="3.3125"><title>2019-04-28</title></circle><circle cx="111.91666666666667" cy="264.90322580645164" fill="#555555" r="3.3125"><title>2019-04-29</title></circle><circle cx="111.91666666666667" cy="273.741935483871" fill="#555555" r="3.3125"><title>2019-04-30</title></circle><circle cx="120.75000000000001" cy="17.419354838709676" fill="#4fa3c0" r="3.3125"><title>2019-05-01: 6 km</title></circle><circle cx="120.75000000000001" cy="26.25806451612903" fill="#555555" r="3.3125"><title>2019-05-02</title></circle><circle cx="120.75000000000001" cy="35.096774193548384" fill="#FFFF00" r="3.3125"><title>2019-05-03: 100 km</title></circle><circle cx="120.75000000000001" cy="43.935483870967744" fill="#555555" r="3.3125"><title>2019-05-04</title></circle><circle cx="120.75000000000001" cy="52.774193548387096" fill="#555555" r="3.3125"><title>2019-05-05</title></circle><circle cx="120.75000000000001" cy="61.61290322580645" fill="#555555" r="3.3125"><title>2019-05-06</title></circle><circle cx="120.75000000000001" cy="70.45161290322581" fill="#555555" r="3.3125"><title>2019-05-07</title></circle><circle cx="120.75000000000001" cy="79.29032258064517" fill="#555555" r="3.3125"><title>2019-05-08</title></circle><circle cx="120.75000000000001" cy="88.12903225806451" fill="#555555" r="3.3125"><title>2019-05-09</title></circle><circle cx="120.75000000000001" cy="96.96774193548387" fill="#FFFF00" r="3.3125"><title>2019-05-10: 30 km</title></circle><circle cx="120.75000000000001" cy="105.80645161290322" fill="#555555" r="3.3125"><title>2019-05-11</title></circle><circle cx="120.75000000000001" cy="114.64516129032258" fill="#FFFF00" r="3.3125"><title>2019-05-12: 13 km</title></circle><circle cx="120.75000000000001" cy="123.48387096774194" fill="#FFFF00" r="3.3125"><title>2019-05-13: 17 km</title></circle><circle cx="120.75000000000001" cy="132.32258064516128" fill="#4dc5ee" r="3.3125"><title>2019-05-14: 9 km</title></circle><circle cx="120.75000000000001" cy="141.16129032258064" fill="#555555" r="3.3125"><title>2019-05-15</title></circle><circle cx="120.75000000000001" cy="149.99999999999997" fill="#FFFF00" r="3.3125"><title>2019-05-16: 15 km</title></circle><circle cx="120.75000000000001" cy="158.83870967741933" fill="#FFFF00" r="3.3125"><title>2019-05-17: 12 km</title></circle><circle cx="120.75000000000001" cy="167.6774193548387" fill="#555555" r="3.3125"><title>2019-05-18</title></circle><circle cx="120.75000000000001" cy="176.51612903225805" fill="#4dcbf5" r="3.3125"><title>2019-05-19: 9 km</title></circle><circle cx="120.75000000000001" cy="185.35483870967738" fill="#555555" r="3.3125"><title>2019-05-20</title></circle><circle cx="120.75000000000001" cy="194.19354838709674" fill="#555555" r="3.3125"><title>2019-05-21</title></circle><circle cx="120.75000000000001" cy="203.0322580645161" fill="#555555" r="3.3125"><title>2019-05-22</title></circle><circle cx="120.75000000000001" cy="211.87096774193546" fill="#555555" r="3.3125"><title>2019-05-23</title></circle><circle cx="120.75000000000001" cy="220.70967741935482" fill="#555555" r="3.3125"><title>2019-05-24</title></circle><circle cx="120.75000000000001" cy="229.54838709677418" fill="#FFFF00" r="3.3125"><title>2019-05-25: 17 km</title></circle><circle cx="120.75000000000001" cy="238.3870967741935" fill="#555555" r="3.3125"><title>2019-05-26</title></circle><circle cx="120.75000000000001" cy="247.22580645161287" fill="#555555" r="3.3125"><title>2019-05-27</title></circle><circle cx="120.75000000000001" cy="256.06451612903226" fill="#555555" r="3.3125"><title>2019-05-28</title></circle><circle cx="120.75000000000001" cy="264.90322580645164" fill="#555555" r="3.3125"><title>2019-05-29</title></circle><circle cx="120.75000000000001" cy="273.741935483871" fill="#555555" r="3.3125"><title>2019-05-30</title></circle><circle cx="120.75000000000001" cy="282.5806451612903" fill="#555555" r="3.3125"><title>2019-05-31</title></circle><circle cx="129.58333333333334" cy="17.419354838709676" fill="#555555" r="3.3125"><title>2019-06-01</title></circle><circle cx="129.58333333333334" cy="26.25806451612903" fill="#FFFF00" r="3.3125"><title>2019-06-02: 26 km</title></circle><circle cx="129.58333333333334" cy="35.096774193548384" fill="#555555" r="3.3125"><title>2019-06-03</title></circle><circle cx="129.58333333333334" cy="43.935483870967744" fill="#555555" r="3.3125"><title>2019-06-04</title></circle><circle cx="129.58333333333334" cy="52.774193548387096" fill="#555555" r="3.3125"><title>2019-06-05</title></circle><circle cx="129.58333333333334" cy="61.61290322580645" fill="#555555" r="3.3125"><title>2019-06-06</title></circle><circle cx="129.58333333333334" cy="70.45161290322581" fill="#555555" r="3.3125"><title>2019-06-07</title></circle><circle cx="129.58333333333334" cy="79.29032258064517" fill="#FFFF00" r="3.3125"><title>2019-06-08: 20 km</title></circle><circle cx="129.58333333333334" cy="88.12903225806451" fill="#555555" r="3.3125"><title>2019-06-09</title></circle><circle cx="129.58333333333334" cy="96.96774193548387" fill="#555555" r="3.3125"><title>2019-06-10</title></circle><circle cx="129.58333333333334" cy="105.80645161290322" fill="#555555" r="3.3125"><title>2019-06-11</title></circle><circle cx="129.58333333333334" cy="114.64516129032258" fill="#555555" r="3.3125"><title>2019-06-12</title></circle><circle cx="129.58333333333334" cy="123.48387096774194" fill="#555555" r="3.3125"><title>2019-06-13</title></circle><circle cx="129.58333333333334" cy="132.32258064516128" fill="#555555" r="3.3125"><title>2019-06-14</title></circle><circle cx="129.58333333333334" cy="141.16129032258064" fill="#FFFF00" r="3.3125"><title>2019-06-15: 12 km</title></circle><circle cx="129.58333333333334" cy="149.99999999999997" fill="#FFFF00" r="3.3125"><title>2019-06-16: 26 km</title></circle><circle cx="129.58333333333334" cy="158.83870967741933" fill="#555555" r="3.3125"><title>2019-06-17</title></circle><circle cx="129.58333333333334" cy="167.6774193548387" fill="#555555" r="3.3125"><title>2019-06-18</title></circle><circle cx="129.58333333333334" cy="176.51612903225805" fill="#555555" r="3.3125"><title>2019-06-19</title></circle><circle cx="129.58333333333334" cy="185.35483870967738" fill="#555555" r="3.3125"><title>2019-06-20</title></circle><circle cx="129.58333333333334" cy="194.19354838709674" fill="#555555" r="3.3125"><title>2019-06-21</title></circle><circle cx="129.58333333333334" cy="203.0322580645161" fill="#555555" r="3.3125"><title>2019-06-22</title></circle><circle cx="129.58333333333334" cy="211.87096774193546" fill="#555555" r="3.3125"><title>2019-06-23</title></circle><circle cx="129.58333333333334" cy="220.70967741935482" fill="#555555" r="3.3125"><title>2019-06-24</title></circle><circle cx="129.58333333333334" cy="229.54838709677418" fill="#555555" r="3.3125"><title>2019-06-25</title></circle><circle cx="129.58333333333334" cy="238.3870967741935" fill="#555555" r="3.3125"><title>2019-06-26</title></circle><circle cx="129.58333333333334" cy="247.22580645161287" fill="#555555" r="3.3125"><title>2019-06-27</title></circle><circle cx="129.58333333333334" cy="256.06451612903226" fill="#FFFF00" r="3.3125"><title>2019-06-28: 10 km</title></circle><circle cx="129.58333333333334" cy="264.90322580645164" fill="#FFFF00" r="3.3125"><title>2019-06-29: 72 km</title></circle><circle cx="129.58333333333334" cy="273.741935483871" fill="#555555" r="3.3125"><title>2019-06-30</title></circle><circle cx="138.41666666666666" cy="17.419354838709676" fill="#555555" r="3.3125"><title>2019-07-01</title></circle><circle cx="138.41666666666666" cy="26.25806451612903" fill="#555555" r="3.3125"><title>2019-07-02</title></circle><circle cx="138.41666666666666" cy="35.096774193548384" fill="#555555" r="3.3125"><title>2019-07-03</title></circle><circle cx="138.41666666666666" cy="43.935483870967744" fill="#555555" r="3.3125"><title>2019-07-04</title></circle><circle cx="138.41666666666666" cy="52.774193548387096" fill="#555555" r="3.3125"><title>2019-07-05</title></circle><circle cx="138.41666666666666" cy="61.61290322580645" fill="#555555" r="3.3125"><title>2019-07-06</title></circle><circle cx="138.41666666666666" cy="70.45161290322581" fill="#555555" r="3.3125"><title>2019-07-07</title></circle><circle cx="138.41666666666666" cy="79.29032258064517" fill="#555555" r="3.3125"><title>2019-07-08</title></circle><circle cx="138.41666666666666" cy="88.12903225806451" fill="#555555" r="3.3125"><title>2019-07-09</title></circle><circle cx="138.41666666666666" cy="96.96774193548387" fill="#555555" r="3.3125"><title>2019-07-10</title></circle><circle cx="138.41666666666666" cy="105.80645161290322" fill="#555555" r="3.3125"><title>2019-07-11</title></circle><circle cx="138.41666666666666" cy="114.64516129032258" fill="#555555" r="3.3125"><title>2019-07-12</title></circle><circle cx="138.41666666666666" cy="123.48387096774194" fill="#555555" r="3.3125"><title>2019-07-13</title></circle><circle cx="138.41666666666666" cy="132.32258064516128" fill="#FFFF00" r="3.3125"><title>2019-07-14: 19 km</title></circle><circle cx="138.41666666666666" cy="141.16129032258064" fill="#555555" r="3.3125"><title>2019-07-15</title></circle><circle cx="138.41666666666666" cy="149.99999999999997" fill="#555555" r="3.3125"><title>2019-07-16</title></circle><circle cx="138.41666666666666" cy="158.83870967741933" fill="#555555" r="3.3125"><title>2019-07-17</title></circle><circle cx="138.41666666666666" cy="167.6774193548387" fill="#FFFF00" r="3.3125"><title>2019-07-18: 10 km</title></circle><circle cx="138.41666666666666" cy="176.51612903225805" fill="#555555" r="3.3125"><title>2019-07-19</title></circle><circle cx="138.41666666666666" cy="185.35483870967738" fill="#FFFF00" r="3.3125"><title>2019-07-20: 13 km</title></circle><circle cx="138.41666666666666" cy="194.19354838709674" fill="#555555" r="3.3125"><title>2019-07-21</title></circle><circle cx="138.41666666666666" cy="203.0322580645161" fill="#555555" r="3.3125"><title>2019-07-22</title></circle><circle cx="138.41666666666666" cy="211.87096774193546" fill="#555555" r="3.3125"><title>2019-07-23</title></circle><circle cx="138.41666666666666" cy="220.70967741935482" fill="#555555" r="3.3125"><title>2019-07-24</title></circle><circle cx="138.41666666666666" cy="229.54838709677418" fill="#FFFF00" r="3.3125"><title>2019-07-25: 15 km</title></circle><circle cx="138.41666666666666" cy="238.3870967741935" fill="#555555" r="3.3125"><title>2019-07-26</title></circle><circle cx="138.41666666666666" cy="247.22580645161287" fill="#555555" r="3.3125"><title>2019-07-27</title></circle><circle cx="138.41666666666666" cy="256.06451612903226" fill="#FFFF00" r="3.3125"><title>2019-07-28: 34 km</title></circle><circle cx="138.41666666666666" cy="264.90322580645164" fill="#555555" r="3.3125"><title>2019-07-29</title></circle><circle cx="138.41666666666666" cy="273.741935483871" fill="#555555" r="3.3125"><title>2019-07-30</title></circle><circle cx="138.41666666666666" cy="282.5806451612903" fill="#555555" r="3.3125"><title>2019-07-31</title></circle><circle cx="147.25" cy="17.419354838709676" fill="#555555" r="3.3125"><title>2019-08-01</title></circle><circle cx="147.25" cy="26.25806451612903" fill="#555555" r="3.3125"><title>2019-08-02</title></circle><circle cx="147.25" cy="35.096774193548384" fill="#FFFF00" r="3.3125"><title>2019-08-03: 19 km</title></circle><circle cx="147.25" cy="43.935483870967744" fill="#FFFF00" r="3.3125"><title>2019-08-04: 26 km</title></circle><circle cx="147.25" cy="52.774193548387096" fill="#555555" r="3.3125"><title>2019-08-05</title></circle><circle cx="147.25" cy="61.61290322580645" fill="#555555" r="3.3125"><title>2019-08-06</title></circle><circle cx="147.25" cy="70.45161290322581" fill="#FFFF00" r="3.3125"><title>2019-08-07: 16 km</title></circle><circle cx="147.25" cy="79.29032258064517" fill="#FFFF00" r="3.3125"><title>2019-08-08: 18 km</title></circle><circle cx="147.25" cy="88.12903225806451" fill="#555555" r="3.3125"><title>2019-08-09</title></circle><circle cx="147.25" cy="96.96774193548387" fill="#FFFF00" r="3.3125"><title>2019-08-10: 23 km</title></circle><circle cx="147.25" cy="105.80645161290322" fill="#555555" r="3.3125"><title>2019-08-11</title></circle><circle cx="147.25" cy="114.64516129032258" fill="#555555" r="3.3125"><title>2019-08-12</title></circle><circle cx="147.25" cy="123.48387096774194" fill="#555555" r="3.3125"><title>2019-08-13</title></circle><circle cx="147.25" cy="132.32258064516128" fill="#FFFF00" r="3.3125"><title>2019-08-14: 31 km</title></circle><circle cx="147.25" cy="141.16129032258064" fill="#555555" r="3.3125"><title>2019-08-15</title></circle><circle cx="147.25" cy="149.99999999999997" fill="#555555" r="3.3125"><title>2019-08-16</title></circle><circle cx="147.25" cy="158.83870967741933" fill="#FFFF00" r="3.3125"><title>2019-08-17: 10 km</title></circle><circle cx="147.25" cy="167.6774193548387" fill="#FFFF00" r="3.3125"><title>2019-08-18: 24 km</title></circle><circle cx="147.25" cy="176.51612903225805" fill="#555555" r="3.3125"><title>2019-08-19</title></circle><circle cx="147.25" cy="185.35483870967738" fill="#555555" r="3.3125"><title>2019-08-20</title></circle><circle cx="147.25" cy="194.19354838709674" fill="#555555" r="3.3125"><title>2019-08-21</title></circle><circle cx="147.25" cy="203.0322580645161" fill="#555555" r="3.3125"><title>2019-08-22</title></circle><circle cx="147.25" cy="211.87096774193546" fill="#555555" r="3.3125"><title>2019-08-23</title></circle><circle cx="147.25" cy="220.70967741935482" fill="#555555" r="3.3125"><title>2019-08-24</title></circle><circle cx="147.25" cy="229.54838709677418" fill="#FFFF00" r="3.3125"><title>2019-08-25: 22 km</title></circle><circle cx="147.25" cy="238.3870967741935" fill="#555555" r="3.3125"><title>2019-08-26</title></circle><circle cx="147.25" cy="247.22580645161287" fill="#555555" r="3.3125"><title>2019-08-27</title></circle><circle cx="147.25" cy="256.06451612903226" fill="#555555" r="3.3125"><title>2019-08-28</title></circle><circle cx="147.25" cy="264.90322580645164" fill="#555555" r="3.3125"><title>2019-08-29</title></circle><circle cx="147.25" cy="273.741935483871" fill="#555555" r="3.3125"><title>2019-08-30</title></circle><circle cx="147.25" cy="282.5806451612903" fill="#FFFF00" r="3.3125"><title>2019-08-31: 35 km</title></circle><circle cx="156.08333333333334" cy="17.419354838709676" fill="#555555" r="3.3125"><title>2019-09-01</title></circle><circle cx="156.08333333333334" cy="26.25806451612903" fill="#555555" r="3.3125"><title>2019-09-02</title></circle><circle cx="156.08333333333334" cy="35.096774193548384" fill="#555555" r="3.3125"><title>2019-09-03</title></circle><circle cx="156.08333333333334" cy="43.935483870967744" fill="#555555" r="3.3125"><title>2019-09-04</title></circle><circle cx="156.08333333333334" cy="52.774193548387096" fill="#555555" r="3.3125"><title>2019-09-05</title></circle><circle cx="156.08333333333334" cy="61.61290322580645" fill="#555555" r="3.3125"><title>2019-09-06</title></circle><circle cx="156.08333333333334" cy="70.45161290322581" fill="#5094aa" r="3.3125"><title>2019-09-07: 5 km</title></circle><circle cx="156.08333333333334" cy="79.29032258064517" fill="#FFFF00" r="3.3125"><title>2019-09-08: 19 km</title></circle><circle cx="156.08333333333334" cy="88.12903225806451" fill="#555555" r="3.3125"><title>2019-09-09</title></circle><circle cx="156.08333333333334" cy="96.96774193548387" fill="#555555" r="3.3125"><title>2019-09-10</title></circle><circle cx="156.08333333333334" cy="105.80645161290322" fill="#555555" r="3.3125"><title>2019-09-11</title></circle><circle cx="156.08333333333334" cy="114.64516129032258" fill="#5093aa" r="3.3125"><title>2019-09-12: 5 km</title></circle><circle cx="156.08333333333334" cy="123.48387096774194" fill="#FFFF00" r="3.3125"><title>2019-09-13: 21 km</title></circle><circle cx="156.08333333333334" cy="132.32258064516128" fill="#FFFF00" r="3.3125"><title>2019-09-14: 116 km</title></circle><circle cx="156.08333333333334" cy="141.16129032258064" fill="#555555" r="3.3125"><title>2019-09-15</title></circle><circle cx="156.08333333333334" cy="149.99999999999997" fill="#555555" r="3.3125"><title>2019-09-16</title></circle><circle cx="156.08333333333334" cy="158.83870967741933" fill="#555555" r="3.3125"><title>2019-09-17</title></circle><circle cx="156.08333333333334" cy="167.6774193548387" fill="#555555" r="3.3125"><title>2019-09-18</title></circle><circle cx="156.08333333333334" cy="176.51612903225805" fill="#555555" r="3.3125"><title>2019-09-19</title></circle><circle cx="156.08333333333334" cy="185.35483870967738" fill="#555555" r="3.3125"><title>2019-09-20</title></circle><circle cx="156.08333333333334" cy="194.19354838709674" fill="#555555" r="3.3125"><title>2019-09-21</title></circle><circle cx="156.08333333333334" cy="203.0322580645161" fill="#FFFF00" r="3.3125"><title>2019-09-22: 22 km</title></circle><circle cx="156.08333333333334" cy="211.87096774193546" fill="#555555" r="3.3125"><title>2019-09-23</title></circle><circle cx="156.08333333333334" cy="220.70967741935482" fill="#555555" r="3.3125"><title>2019-09-24</title></circle><circle cx="156.08333333333334" cy="229.54838709677418" fill="#527784" r="3.3125"><title>2019-09-25: 2 km</title></circle><circle cx="156.08333333333334" cy="238.3870967741935" fill="#FFFF00" r="3.3125"><title>2019-09-26: 37 km</title></circle><circle cx="156.08333333333334" cy="247.22580645161287" fill="#555555" r="3.3125"><title>2019-09-27</title></circle><circle cx="156.08333333333334" cy="256.06451612903226" fill="#555555" r="3.3125"><title>2019-09-28</title></circle><circle cx="156.08333333333334" cy="264.90322580645164" fill="#555555" r="3.3125"><title>2019-09-29</title></circle><circle cx="156.08333333333334" cy="273.741935483871" fill="#FFFF00" r="3.3125"><title>2019-09-30: 16 km</title></circle><circle cx="164.91666666666666" cy="17.419354838709676" fill="#555555" r="3.3125"><title>2019-10-01</title></circle><circle cx="164.91666666666666" cy="26.25806451612903" fill="#4dc6ef" r="3.3125"><title>2019-10-02: 9 km</title></circle><circle cx="164.91666666666666" cy="35.096774193548384" fill="#555555" r="3.3125"><title>2019-10-03</title></circle><circle cx="164.91666666666666" cy="43.935483870967744" fill="#555555" r="3.3125"><title>2019-10-04</title></circle><circle cx="164.91666666666666" cy="52.774193548387096" fill="#555555" r="3.3125"><title>2019-10-05</title></circle><circle cx="164.91666666666666" cy="61.61290322580645" fill="#FFFF00" r="3.3125"><title>2019-10-06: 27 km</title></circle><circle cx="164.91666666666666" cy="70.45161290322581" fill="#555555" r="3.3125"><title>2019-10-07</title></circle><circle cx="164.91666666666666" cy="79.29032258064517" fill="#FFFF00" r="3.3125"><title>2019-10-08: 12 km</title></circle><circle cx="164.91666666666666" cy="88.12903225806451" fill="#555555" r="3.3125"><title>2019-10-09</title></circle><circle cx="164.91666666666666" cy="96.96774193548387" fill="#FFFF00" r="3.3125"><title>2019-10-10: 12 km</title></circle><circle cx="164.91666666666666" cy="105.80645161290322" fill="#555555" r="3.3125"><title>2019-10-11</title></circle><circle cx="164.91666666666666" cy="114.64516129032258" fill="#FFFF00" r="3.3125"><title>2019-10-12: 23 km</title></circle><circle cx="164.91666666666666" cy="123.48387096774194" fill="#FFFF00" r="3.3125"><title>2019-10-13: 22 km</title></circle><circle cx="164.91666666666666" cy="132.32258064516128" fill="#555555" r="3.3125"><title>2019-10-14</title></circle><circle cx="164.91666666666666" cy="141.16129032258064" fill="#FFFF00" r="3.3125"><title>2019-10-15: 22 km</title></circle><circle cx="164.91666666666666" cy="149.99999999999997" fill="#555555" r="3.3125"><title>2019-10-16</title></circle><circle cx="164.91666666666666" cy="158.83870967741933" fill="#FFFF00" r="3.3125"><title>2019-10-17: 12 km</title></circle><circle cx="164.91666666666666" cy="167.6774193548387" fill="#555555" r="3.3125"><title>2019-10-18</title></circle><circle cx="164.91666666666666" cy="176.51612903225805" fill="#53676e" r="3.3125"><title>2019-10-19: 1 km</title></circle><circle cx="164.91666666666666" cy="185.35483870967738" fill="#FFFF00" r="3.3125"><title>2019-10-20: 16 km</title></circle><circle cx="164.91666666666666" cy="194.19354838709674" fill="#555555" r="3.3125"><title>2019-10-21</title></circle><circle cx="164.91666666666666" cy="203.0322580645161" fill="#FFFF00" r="3.3125"><title>2019-10-22: 23 km</title></circle><circle cx="164.91666666666666" cy="211.87096774193546" fill="#FFFF00" r="3.3125"><title>2019-10-23: 17 km</title></circle><circle cx="164.91666666666666" cy="220.70967741935482" fill="#FFFF00" r="3.3125"><title>2019-10-24: 18 km</title></circle><circle cx="164.91666666666666" cy="229.54838709677418" fill="#555555" r="3.3125"><title>2019-10-25</title></circle><circle cx="164.91666666666666" cy="238.3870967741935" fill="#FFFF00" r="3.3125"><title>2019-10-26: 13 km</title></circle><circle cx="164.91666666666666" cy="247.22580645161287" fill="#FFFF00" r="3.3125"><title>2019-10-27: 12 km</title></circle><circle cx="164.91666666666666" cy="256.06451612903226" fill="#555555" r="3.3125"><title>2019-10-28</title></circle><circle cx="164.91666666666666" cy="264.90322580645164" fill="#FFFF00" r="3.3125"><title>2019-10-29: 18 km</title></circle><circle cx="164.91666666666666" cy="273.741935483871" fill="#FFFF00" r="3.3125"><title>2019-10-30: 11 km</title></circle><circle cx="164.91666666666666" cy="282.5806451612903" fill="#FFFF00" r="3.3125"><title>2019-10-31: 23 km</title></circle><circle cx="173.75" cy="17.419354838709676" fill="#FFFF00" r="3.3125"><title>2019-11-01: 10 km</title></circle><circle cx="173.75" cy="26.25806451612903" fill="#555555" r="3.3125"><title>2019-11-02</title></circle><circle cx="173.75" cy="35.096774193548384" fill="#FFFF00" r="3.3125"><title>2019-11-03: 33 km</title></circle><circle cx="173.75" cy="43.935483870967744" fill="#FFFF00" r="3.3125"><title>2019-11-04: 11 km</title></circle><circle cx="173.75" cy="52.774193548387096" fill="#FFFF00" r="3.3125"><title>2019-11-05: 16 km</title></circle><circle cx="173.75" cy="61.61290322580645" fill="#FFFF00" r="3.3125"><title>2019-11-06: 16 km</title></circle><circle cx="173.75" cy="70.45161290322581" fill="#FFFF00" r="3.3125"><title>2019-11-07: 17 km</title></circle><circle cx="173.75" cy="79.29032258064517" fill="#FFFF00" r="3.3125"><title>2019-11-08: 17 km</title></circle><circle cx="173.75" cy="88.12903225806451" fill="#FFFF00" r="3.3125"><title>2019-11-09: 16 km</title></circle><circle cx="173.75" cy="96.96774193548387" fill="#FFFF00" r="3.3125"><title>2019-11-10: 17 km</title></circle><circle cx="173.75" cy="105.80645161290322" fill="#555555" r="3.3125"><title>2019-11-11</title></circle><circle cx="173.75" cy="114.64516129032258" fill="#555555" r="3.3125"><title>2019-11-12</title></circle><circle cx="173.75" cy="123.48387096774194" fill="#4ebde3" r="3.3125"><title>2019-11-13: 8 km</title></circle><circle cx="173.75" cy="132.32258064516128" fill="#555555" r="3.3125"><title>2019-11-14</title></circle><circle cx="173.75" cy="141.16129032258064" fill="#FFFF00" r="3.3125"><title>2019-11-15: 14 km</title></circle><circle cx="173.75" cy="149.99999999999997" fill="#FFFF00" r="3.3125"><title>2019-11-16: 14 km</title></circle><circle cx="173.75" cy="158.83870967741933" fill="#FFFF00" r="3.3125"><title>2019-11-17: 12 km</title></circle><circle cx="173.75" cy="167.6774193548387" fill="#555555" r="3.3125"><title>2019-11-18</title></circle><circle cx="173.75" cy="176.51612903225805" fill="#FFFF00" r="3.3125"><title>2019-11-19: 26 km</title></circle><circle cx="173.75" cy="185.35483870967738" fill="#555555" r="3.3125"><title>2019-11-20</title></circle><circle cx="173.75" cy="194.19354838709674" fill="#555555" r="3.3125"><title>2019-11-21</title></circle><circle cx="173.75" cy="203.0322580645161" fill="#555555" r="3.3125"><title>2019-11-22</title></circle><circle cx="173.75" cy="211.87096774193546" fill="#50a1bc" r="3.3125"><title>2019-11-23: 6 km</title></circle><circle cx="173.75" cy="220.70967741935482" fill="#FFFF00" r="3.3125"><title>2019-11-24: 16 km</title></circle><circle cx="173.75" cy="229.54838709677418" fill="#555555" r="3.3125"><title>2019-11-25</title></circle><circle cx="173.75" cy="238.3870967741935" fill="#555555" r="3.3125"><title>2019-11-26</title></circle><circle cx="173.75" cy="247.22580645161287" fill="#555555" r="3.3125"><title>2019-11-27</title></circle><circle cx="173.75" cy="256.06451612903226" fill="#555555" r="3.3125"><title>2019-11-28</title></circle><circle cx="173.75" cy="264.90322580645164" fill="#555555" r="3.3125"><title>2019-11-29</title></circle><circle cx="173.75" cy="273.741935483871" fill="#FFFF00" r="3.3125"><title>2019-11-30: 13 km</title></circle><circle cx="182.58333333333334" cy="17.419354838709676" fill="#555555" r="3.3125"><title>2019-12-01</title></circle><circle cx="182.58333333333334" cy="26.25806451612903" fill="#555555" r="3.3125"><title>2019-12-02</title></circle><circle cx="182.58333333333334" cy="35.096774193548384" fill="#555555" r="3.3125"><title>2019-12-03</title></circle><circle cx="182.58333333333334" cy="43.935483870967744" fill="#555555" r="3.3125"><title>2019-12-04</title></circle><circle cx="182.58333333333334" cy="52.774193548387096" fill="#555555" r="3.3125"><title>2019-12-05</title></circle><circle cx="182.58333333333334" cy="61.61290322580645" fill="#555555" r="3.3125"><title>2019-12-06</title></circle><circle cx="182.58333333333334" cy="70.45161290322581" fill="#FFFF00" r="3.3125"><title>2019-12-07: 13 km</title></circle><circle cx="182.58333333333334" cy="79.29032258064517" fill="#555555" r="3.3125"><title>2019-12-08</title></circle><circle cx="182.58333333333334" cy="88.12903225806451" fill="#FFFF00" r="3.3125"><title>2019-12-09: 11 km</title></circle><circle cx="182.58333333333334" cy="96.96774193548387" fill="#555555" r="3.3125"><title>2019-12-10</title></circle><circle cx="182.58333333333334" cy="105.80645161290322" fill="#FFFF00" r="3.3125"><title>2019-12-11: 14 km</title></circle><circle cx="182.58333333333334" cy="114.64516129032258" fill="#555555" r="3.3125"><title>2019-12-12</title></circle><circle cx="182.58333333333334" cy="123.48387096774194" fill="#555555" r="3.3125"><title>2019-12-13</title></circle><circle cx="182.58333333333334" cy="132.32258064516128" fill="#555555" r="3.3125"><title>2019-12-14</title></circle><circle cx="182.58333333333334" cy="141.16129032258064" fill="#FFFF00" r="3.3125"><title>2019-12-15: 21 km</title></circle><circle cx="182.58333333333334" cy="149.99999999999997" fill="#555555" r="3.3125"><title>2019-12-16</title></circle><circle cx="182.58333333333334" cy="158.83870967741933" fill="#555555" r="3.3125"><title>2019-12-17</title></circle><circle cx="182.58333333333334" cy="167.6774193548387" fill="#555555" r="3.3125"><title>2019-12-18</title></circle><circle cx="182.58333333333334" cy="176.51612903225805" fill="#FFFF00" r="3.3125"><title>2019-12-19: 13 km</title></circle><circle cx="182.58333333333334" cy="185.35483870967738" fill="#555555" r="3.3125"><title>2019-12-20</title></circle><circle cx="182.58333333333334" cy="194.19354838709674" fill="#FFFF00" r="3.3125"><title>2019-12-21: 20 km</title></circle><circle cx="182.58333333333334" cy="203.0322580645161" fill="#555555" r="3.3125"><title>2019-12-22</title></circle><circle cx="182.58333333333334" cy="211.87096774193546" fill="#555555" r="3.3125"><title>2019-12-23</title></circle><circle cx="182.58333333333334" cy="220.70967741935482" fill="#FFFF00" r="3.3125"><title>2019-12-24: 15 km</title></circle><circle cx="182.58333333333334" cy="229.54838709677418" fill="#555555" r="3.3125"><title>2019-12-25</title></circle><circle cx="182.58333333333334" cy="238.3870967741935" fill="#FFFF00" r="3.3125"><title>2019-12-26: 14 km</title></circle><circle cx="182.58333333333334" cy="247.22580645161287" fill="#555555" r="3.3125"><title>2019-12-27</title></circle><circle cx="182.58333333333334" cy="256.06451612903226" fill="#FFFF00" r="3.3125"><title>2019-12-28: 30 km</title></circle><circle cx="182.58333333333334" cy="264.90322580645164" fill="#555555" r="3.3125"><title>2019-12-29</title></circle><circle cx="182.58333333333334" cy="273.741935483871" fill="#555555" r="3.3125"><title>2019-12-30</title></circle><circle cx="182.58333333333334" cy="282.5806451612903" fill="#555555" r="3.3125"><title>2019-12-31</title></circle></svg>