<?xml version="1.0" encoding="utf-8" ?>
<svg baseProfile="full" height="300mm" version="1.1" viewBox="0,0,200,300" width="200mm" xmlns="http://www.w3.org/2000/svg" xmlns:ev="http://www.w3.org/2001/xml-events" xmlns:xlink="http://www.w3.org/1999/xlink"><defs /><rect fill="#222222" height="300" width="200" x="0" y="0" /><text fill="#555555" style="font-size:6px; font-family:Arial;" x="11" y="19">Running for 4138 Days</text><text fill="#555555" style="font-size:6px; font-family:Arial;" x="11" y="39">Races</text><text fill="#555555" style="font-size:8px; font-family:Arial;" x="11" y="59">1</text><text fill="#FFFFFF" style="font-size:10px; font-family:Arial; font-weight:bold;" x="23" y="59">Full</text><text fill="#555555" style="font-size:6px; font-family:Arial;" x="49" y="59">62x</text><text fill="#555555" style="font-size:8px; font-family:Arial;" x="11" y="77">2</text><text fill="#FFFFFF" style="font-size:10px; font-family:Arial; font-weight:bold;" x="23" y="77">Half</text><text fill="#555555" style="font-size:6px; font-family:Arial;" x="49" y="77">70x</text><text fill="#555555" style="font-size:8px; font-family:Arial;" x="11" y="95">3</text><text fill="#FFFFFF" style="font-size:10px; font-family:Arial; font-weight:bold;" x="23" y="95">10K</text><text fill="#555555" style="font-size:6px; font-family:Arial;" x="49" y="95">98x</text><text fill="#555555" style="font-size:6px; font-family:Arial;" x="11" y="133">Stats</text><text fill="#555555" style="font-size:5px; font-family:Arial;" x="11" y="139">Distance</text><text fill="#FFFFFF" style="font-size:10px; font-family:Arial; font-weight:bold;" x="11" y="150">9563</text><text fill="#555555" style="font-size:6px; font-family:Arial;" x="35" y="150">km</text><text fill="#555555" style="font-size:5px; font-family:Arial;" x="53" y="139">Runs</text><text fill="#FFFFFF" style="font-size:10px; font-family:Arial; font-weight:bold;" x="53" y="150">318</text><text fill="#555555" style="font-size:5px; font-family:Arial;" x="11" y="167">Avg Pace</text><text fill="#FFFFFF" style="font-size:10px; font-family:Arial; font-weight:bold;" x="11" y="178">3'30"</text><text fill="#555555" style="font-size:5px; font-family:Arial;" x="53" y="167">Streak</text><text fill="#FFFFFF" style="font-size:10px; font-family:Arial; font-weight:bold;" x="53" y="178">11</text><text fill="#555555" style="font-size:6px; font-family:Arial;" x="65" y="178">d</text><text fill="#555555" style="font-size:5px; font-family:Arial;" x="11" y="195">Time</text><text fill="#FFFFFF" style="font-size:10px; font-family:Arial; font-weight:bold;" x="11" y="206">558</text><text fill="#555555" style="font-size:6px; font-family:Arial;" x="29" y="206">h</text><text fill="#555555" style="font-size:5px; font-family:Arial;" x="53" y="195">Longest</text><text fill="#FFFFFF" style="font-size:10px; font-family:Arial; font-weight:bold;" x="53" y="206">197.2</text><text fill="#555555" style="font-size:5px; font-family:Arial;" x="11" y="252.0645161290322">Runner</text><text fill="#FFFFFF" style="font-size:8px; font-family:Arial; font-weight:bold;" x="11" y="262.0645161290322">Edison</text><text fill="#555555" style="font-size:7px; font-family:Arial;" x="11" y="285.5806451612903">running_page/2024</text><circle cx="85.41666666666667" cy="17.419354838709676" fill="#FFFF00" r="3.3125"><title>2024-01-01: 108 km</title></circle><circle cx="85.41666666666667" cy="26.25806451612903" fill="#555555" r="3.3125"><title>2024-01-02</title></circle><circle cx="85.41666666666667" cy="35.096774193548384" fill="#FFFF00" r="3.3125"><title>2024-01-03: 11 km</title></circle><circle cx="85.41666666666667" cy="43.935483870967744" fill="#555555" r="3.3125"><title>2024-01-04</title></circle><circle cx="85.41666666666667" cy="52.774193548387096" fill="#FFFF00" r="3.3125"><title>2024-01-05: 30 km</title></circle><circle cx="85.41666666666667" cy="61.61290322580645" fill="#FFFF00" r="3.3125"><title>2024-01-06: 20 km</title></circle><circle cx="85.41666666666667" cy="70.45161290322581" fill="#FFFF00" r="3.3125"><title>2024-01-07: 29 km</title></circle><circle cx="85.41666666666667" cy="79.29032258064517" fill="#555555" r="3.3125"><title>2024-01-08</title></circle><circle cx="85.41666666666667" cy="88.12903225806451" fill="#FFFF00" r="3.3125"><title>2024-01-09: 11 km</title></circle><circle cx="85.41666666666667" cy="96.96774193548387" fill="#FFFF00" r="3.3125"><title>2024-01-10: 11 km</title></circle><circle cx="85.41666666666667" cy="105.80645161290322" fill="#555555" r="3.3125"><title>2024-01-11</title></circle><circle cx="85.41666666666667" cy="114.64516129032258" fill="#FFFF00" r="3.3125"><title>2024-01-12: 21 km</title></circle><circle cx="85.41666666666667" cy="123.48387096774194" fill="#FFFF00" r="3.3125"><title>2024-01-13: 69 km</title></circle><circle cx="85.41666666666667" cy="132.32258064516128" fill="#FFFF00" r="3.3125"><title>2024-01-14: 70 km</title></circle><circle cx="85.41666666666667" cy="141.16129032258064" fill="#4eb6d9" r="3.3125"><title>2024-01-15: 7 km</title></circle><circle cx="85.41666666666667" cy="149.99999999999997" fill="#555555" r="3.3125"><title>2024-01-16</title></circle><circle cx="85.41666666666667" cy="158.83870967741933" fill="#FFFF00" r="3.3125"><title>2024-01-17: 15 km</title></circle><circle cx="85.41666666666667" cy="167.6774193548387" fill="#555555" r="3.3125"><title>2024-01-18</title></circle><circle cx="85.41666666666667" cy="176.51612903225805" fill="#555555" r="3.3125"><title>2024-01-19</title></circle><circle cx="85.41666666666667" cy="185.35483870967738" fill="#518698" r="3.3125"><title>2024-01-20: 3 km</title></circle><circle cx="85.41666666666667" cy="194.19354838709674" fill="#555555" r="3.3125"><title>2024-01-21</title></circle><circle cx="85.41666666666667" cy="203.0322580645161" fill="#53737e" r="3.3125"><title>2024-01-22: 2 km</title></circle><circle cx="85.41666666666667" cy="211.87096774193546" fill="#FFFF00" r="3.3125"><title>2024-01-23: 17 km</title></circle><circle cx="85.41666666666667" cy="220.70967741935482" fill="#FFFF00" r="3.3125"><title>2024-01-24: 106 km</title></circle><circle cx="85.41666666666667" cy="229.54838709677418" fill="#555555" r="3.3125"><title>2024-01-25</title></circle><circle cx="85.41666666666667" cy="238.3870967741935" fill="#FFFF00" r="3.3125"><title>2024-01-26: 15 km</title></circle><circle cx="85.41666666666667" cy="247.22580645161287" fill="#FFFF00" r="3.3125"><title>2024-01-27: 63 km</title></circle><circle cx="85.41666666666667" cy="256.06451612903226" fill="#555555" r="3.3125"><title>2024-01-28</title></circle><circle cx="85.41666666666667" cy="264.90322580645164" fill="#FFFF00" r="3.3125"><title>2024-01-29: 33 km</title></circle><circle cx="85.41666666666667" cy="273.741935483871" fill="#FFFF00" r="3.3125"><title>2024-01-30: 11 km</title></circle><circle cx="85.41666666666667" cy="282.5806451612903" fill="#FFFF00" r="3.3125"><title>2024-01-31: 18 km</title></circle><circle cx="94.25" cy="17.419354838709676" fill="#555555" r="3.3125"><title>2024-02-01</title></circle><circle cx="94.25" cy="26.25806451612903" fill="#555555" r="3.3125"><title>2024-02-02</title></circle><circle cx="94.25" cy="35.096774193548384" fill="#555555" r="3.3125"><title>2024-02-03</title></circle><circle cx="94.25" cy="43.935483870967744" fill="#FFFF00" r="3.3125"><title>2024-02-04: 15 km</title></circle><circle cx="94.25" cy="52.774193548387096" fill="#FFFF00" r="3.3125"><title>2024-02-05: 13 km</title></circle><circle cx="94.25" cy="61.61290322580645" fill="#FFFF00" r="3.3125"><title>2024-02-06: 122 km</title></circle><circle cx="94.25" cy="70.45161290322581" fill="#FFFF00" r="3.3125"><title>2024-02-07: 149 km</title></circle><circle cx="94.25" cy="79.29032258064517" fill="#FFFF00" r="3.3125"><title>2024-02-08: 168 km</title></circle><circle cx="94.25" cy="88.12903225806451" fill="#FFFF00" r="3.3125"><title>2024-02-09: 197 km</title></circle><circle cx="94.25" cy="96.96774193548387" fill="#FFFF00" r="3.3125"><title>2024-02-10: 96 km</title></circle><circle cx="94.25" cy="105.80645161290322" fill="#FFFF00" r="3.3125"><title>2024-02-11: 172 km</title></circle><circle cx="94.25" cy="114.64516129032258" fill="#FFFF00" r="3.3125"><title>2024-02-12: 143 km</title></circle><circle cx="94.25" cy="123.48387096774194" fill="#FFFF00" r="3.3125"><title>2024-02-13: 12 km</title></circle><circle cx="94.25" cy="132.32258064516128" fill="#FFFF00" r="3.3125"><title>2024-02-14: 48 km</title></circle><circle cx="94.25" cy="141.16129032258064" fill="#555555" r="3.3125"><title>2024-02-15</title></circle><circle cx="94.25" cy="149.99999999999997" fill="#555555" r="3.3125"><title>2024-02-16</title></circle><circle cx="94.25" cy="158.83870967741933" fill="#555555" r="3.3125"><title>2024-02-17</title></circle><circle cx="94.25" cy="167.6774193548387" fill="#555555" r="3.3125"><title>2024-02-18</title></circle><circle cx="94.25" cy="176.51612903225805" fill="#555555" r="3.3125"><title>2024-02-19</title></circle><circle cx="94.25" cy="185.35483870967738" fill="#555555" r="3.3125"><title>2024-02-20</title></circle><circle cx="94.25" cy="194.19354838709674" fill="#555555" r="3.3125"><title>2024-02-21</title></circle><circle cx="94.25" cy="203.0322580645161" fill="#555555" r="3.3125"><title>2024-02-22</title></circle><circle cx="94.25" cy="211.87096774193546" fill="#555555" r="3.3125"><title>2024-02-23</title></circle><circle cx="94.25" cy="220.70967741935482" fill="#FFFF00" r="3.3125"><title>2024-02-24: 77 km</title></circle><circle cx="94.25" cy="229.54838709677418" fill="#555555" r="3.3125"><title>2024-02-25</title></circle><circle cx="94.25" cy="238.3870967741935" fill="#555555" r="3.3125"><title>2024-02-26</title></circle><circle cx="94.25" cy="247.22580645161287" fill="#555555" r="3.3125"><title>2024-02-27</title></circle><circle cx="94.25" cy="256.06451612903226" fill="#555555" r="3.3125"><title>2024-02-28</title></circle><circle cx="94.25" cy="264.90322580645164" fill="#555555" r="3.3125"><title>2024-02-29</title></circle><circle cx="103.08333333333334" cy="17.419354838709676" fill="#555555" r="3.3125"><title>2024-03-01</title></circle><circle cx="103.08333333333334" cy="26.25806451612903" fill="#555555" r="3.3125"><title>2024-03-02</title></circle><circle cx="103.08333333333334" cy="35.096774193548384" fill="#FFFF00" r="3.3125"><title>2024-03-03: 96 km</title></circle><circle cx="103.08333333333334" cy="43.935483870967744" fill="#555555" r="3.3125"><title>2024-03-04</title></circle><circle cx="103.08333333333334" cy="52.774193548387096" fill="#555555" r="3.3125"><title>2024-03-05</title></circle><circle cx="103.08333333333334" cy="61.61290322580645" fill="#555555" r="3.3125"><title>2024-03-06</title></circle><circle cx="103.08333333333334" cy="70.45161290322581" fill="#555555" r="3.3125"><title>2024-03-07</title></circle><circle cx="103.08333333333334" cy="79.29032258064517" fill="#555555" r="3.3125"><title>2024-03-08</title></circle><circle cx="103.08333333333334" cy="88.12903225806451" fill="#555555" r="3.3125"><title>2024-03-09</title></circle><circle cx="103.08333333333334" cy="96.96774193548387" fill="#555555" r="3.3125"><title>2024-03-10</title></circle><circle cx="103.08333333333334" cy="105.80645161290322" fill="#FFFF00" r="3.3125"><title>2024-03-11: 10 km</title></circle><circle cx="103.08333333333334" cy="114.64516129032258" fill="#FFFF00" r="3.3125"><title>2024-03-12: 11 km</title></circle><circle cx="103.08333333333334" cy="123.48387096774194" fill="#555555" r="3.3125"><title>2024-03-13</title></circle><circle cx="103.08333333333334" cy="132.32258064516128" fill="#FFFF00" r="3.3125"><title>2024-03-14: 25 km</title></circle><circle cx="103.08333333333334" cy="141.16129032258064" fill="#FFFF00" r="3.3125"><title>2024-03-15: 11 km</title></circle><circle cx="103.08333333333334" cy="149.99999999999997" fill="#555555" r="3.3125"><title>2024-03-16</title></circle><circle cx="103.08333333333334" cy="158.83870967741933" fill="#FFFF00" r="3.3125"><title>2024-03-17: 39 km</title></circle><circle cx="103.08333333333334" cy="167.6774193548387" fill="#555555" r="3.3125"><title>2024-03-18</title></circle><circle cx="103.08333333333334" cy="176.51612903225805" fill="#527a87" r="3.3125"><title>2024-03-19: 2 km</title></circle><circle cx="103.08333333333334" cy="185.35483870967738" fill="#FFFF00" r="3.3125"><title>2024-03-20: 34 km</title></circle><circle cx="103.08333333333334" cy="194.19354838709674" fill="#FFFF00" r="3.3125"><title>2024-03-21: 27 km</title></circle><circle cx="103.08333333333334" cy="203.0322580645161" fill="#555555" r="3.3125"><title>2024-03-22</title></circle><circle cx="103.08333333333334" cy="211.87096774193546" fill="#FFFF00" r="3.3125"><title>2024-03-23: 38 km</title></circle><circle cx="103.08333333333334" cy="220.70967741935482" fill="#FFFF00" r="3.3125"><title>2024-03-24: 34 km</title></circle><circle cx="103.08333333333334" cy="229.54838709677418" fill="#555555" r="3.3125"><title>2024-03-25</title></circle><circle cx="103.08333333333334" cy="238.3870967741935" fill="#FFFF00" r="3.3125"><title>2024-03-26: 11 km</title></circle><circle cx="103.08333333333334" cy="247.22580645161287" fill="#FFFF00" r="3.3125"><title>2024-03-27: 11 km</title></circle><circle cx="103.08333333333334" cy="256.06451612903226" fill="#555555" r="3.3125"><title>2024-03-28</title></circle><circle cx="103.08333333333334" cy="264.90322580645164" fill="#FFFF00" r="3.3125"><title>2024-03-29: 21 km</title></circle><circle cx="103.08333333333334" cy="273.741935483871" fill="#FFFF00" r="3.3125"><title>2024-03-30: 21 km</title></circle><circle cx="103.08333333333334" cy="282.5806451612903" fill="#555555" r="3.3125"><title>2024-03-31</title></circle><circle cx="111.91666666666667" cy="17.419354838709676" fill="#FFFF00" r="3.3125"><title>2024-04-01: 12 km</title></circle><circle cx="111.91666666666667" cy="26.25806451612903" fill="#FFFF00" r="3.3125"><title>2024-04-02: 12 km</title></circle><circle cx="111.91666666666667" cy="35.096774193548384" fill="#FFFF00" r="3.3125"><title>2024-04-03: 22 km</title></circle><circle cx="111.91666666666667" cy="43.935483870967744" fill="#555555" r="3.3125"><title>2024-04-04</title></circle><circle cx="111.91666666666667" cy="52.774193548387096" fill="#FFFF00" r="3.3125"><title>2024-04-05: 26 km</title></circle><circle cx="111.91666666666667" cy="61.61290322580645" fill="#555555" r="3.3125"><title>2024-04-06</title></circle><circle cx="111.91666666666667" cy="70.45161290322581" fill="#FFFF00" r="3.3125"><title>2024-04-07: 20 km</title></circle><circle cx="111.91666666666667" cy="79.29032258064517" fill="#555555" r="3.3125"><title>2024-04-08</title></circle><circle cx="111.91666666666667" cy="88.12903225806451" fill="#FFFF00" r="3.3125"><title>2024-04-09: 17 km</title></circle><circle cx="111.91666666666667" cy="96.96774193548387" fill="#FFFF00" r="3.3125"><title>2024-04-10: 27 km</title></circle><circle cx="111.91666666666667" cy="105.80645161290322" fill="#FFFF00" r="3.3125"><title>2024-04-11: 39 km</title></circle><circle cx="111.91666666666667" cy="114.64516129032258" fill="#555555" r="3.3125"><title>2024-04-12</title></circle><circle cx="111.91666666666667" cy="123.48387096774194" fill="#555555" r="3.3125"><title>2024-04-13</title></circle><circle cx="111.91666666666667" cy="132.32258064516128" fill="#FFFF00" r="3.3125"><title>2024-04-14: 116 km</title></circle><circle cx="111.91666666666667" cy="141.16129032258064" fill="#555555" r="3.3125"><title>2024-04-15</title></circle><circle cx="111.91666666666667" cy="149.99999999999997" fill="#FFFF00" r="3.3125"><title>2024-04-16: 11 km</title></circle><circle cx="111.91666666666667" cy="158.83870967741933" fill="#FFFF00" r="3.3125"><title>2024-04-17: 27 km</title></circle><circle cx="111.91666666666667" cy="167.6774193548387" fill="#555555" r="3.3125"><title>2024-04-18</title></circle><circle cx="111.91666666666667" cy="176.51612903225805" fill="#4eb6d9" r="3.3125"><title>2024-04-19: 7 km</title></circle><circle cx="111.91666666666667" cy="185.35483870967738" fill="#FFFF00" r="3.3125"><title>2024-04-20: 30 km</title></circle><circle cx="111.91666666666667" cy="194.19354838709674" fill="#555555" r="3.3125"><title>2024-04-21</title></circle><circle cx="111.91666666666667" cy="203.0322580645161" fill="#FFFF00" r="3.3125"><title>2024-04-22: 15 km</title></circle><circle cx="111.91666666666667" cy="211.87096774193546" fill="#555555" r="3.3125"><title>2024-04-23</title></circle><circle cx="111.91666666666667" cy="220.70967741935482" fill="#FFFF00" r="3.3125"><title>2024-04-24: 15 km</title></circle><circle cx="111.91666666666667" cy="229.54838709677418" fill="#555555" r="3.3125"><title>2024-04-25</title></circle><circle cx="111.91666666666667" cy="238.3870967741935" fill="#5192a8" r="3.3125"><title>2024-04-26: 4 km</title></circle><circle cx="111.91666666666667" cy="247.22580645161287" fill="#FFFF00" r="3.3125"><title>2024-04-27: 69 km</title></circle><circle cx="111.91666666666667" cy="256.06451612903226" fill="#FFFF00" r="3.3125"><title>2024-04-28: 33 km</title></circle><circle cx="111.91666666666667" cy="264.90322580645164" fill="#555555" r="3.3125"><title>2024-04-29</title></circle><circle cx="111.91666666666667" cy="273.741935483871" fill="#FFFF00" r="3.3125"><title>2024-04-30: 38 km</title></circle><circle cx="120.75000000000001" cy="17.419354838709676" fill="#FFFF00" r="3.3125"><title>2024-05-01: 27 km</title></circle><circle cx="120.75000000000001" cy="26.25806451612903" fill="#FFFF00" r="3.3125"><title>2024-05-02: 47 km</title></circle><circle cx="120.75000000000001" cy="35.096774193548384" fill="#555555" r="3.3125"><title>2024-05-03</title></circle><circle cx="120.75000000000001" cy="43.935483870967744" fill="#509fba" r="3.3125"><title>2024-05-04: 5 km</title></circle><circle cx="120.75000000000001" cy="52.774193548387096" fill="#FFFF00" r="3.3125"><title>2024-05-05: 145 km</title></circle><circle cx="120.75000000000001" cy="61.61290322580645" fill="#555555" r="3.3125"><title>2024-05-06</title></circle><circle cx="120.75000000000001" cy="70.45161290322581" fill="#FFFF00" r="3.3125"><title>2024-05-07: 32 km</title></circle><circle cx="120.75000000000001" cy="79.29032258064517" fill="#4fa9c8" r="3.3125"><title>2024-05-08: 6 km</title></circle><circle cx="120.75000000000001" cy="88.12903225806451" fill="#555555" r="3.3125"><title>2024-05-09</title></circle><circle cx="120.75000000000001" cy="96.96774193548387" fill="#FFFF00" r="3.3125"><title>2024-05-10: 15 km</title></circle><circle cx="120.75000000000001" cy="105.80645161290322" fill="#FFFF00" r="3.3125"><title>2024-05-11: 55 km</title></circle><circle cx="120.75000000000001" cy="114.64516129032258" fill="#FFFF00" r="3.3125"><title>2024-05-12: 94 km</title></circle><circle cx="120.75000000000001" cy="123.48387096774194" fill="#555555" r="3.3125"><title>2024-05-13</title></circle><circle cx="120.75000000000001" cy="132.32258064516128" fill="#FFFF00" r="3.3125"><title>2024-05-14: 47 km</title></circle><circle cx="120.75000000000001" cy="141.16129032258064" fill="#555555" r="3.3125"><title>2024-05-15</title></circle><circle cx="120.75000000000001" cy="149.99999999999997" fill="#555555" r="3.3125"><title>2024-05-16</title></circle><circle cx="120.75000000000001" cy="158.83870967741933" fill="#FFFF00" r="3.3125"><title>2024-05-17: 21 km</title></circle><circle cx="120.75000000000001" cy="167.6774193548387" fill="#FFFF00" r="3.3125"><title>2024-05-18: 117 km</title></circle><circle cx="120.75000000000001" cy="176.51612903225805" fill="#555555" r="3.3125"><title>2024-05-19</title></circle><circle cx="120.75000000000001" cy="185.35483870967738" fill="#555555" r="3.3125"><title>2024-05-20</title></circle><circle cx="120.75000000000001" cy="194.19354838709674" fill="#FFFF00" r="3.3125"><title>2024-05-21: 15 km</title></circle><circle cx="120.75000000000001" cy="203.0322580645161" fill="#555555" r="3.3125"><title>2024-05-22</title></circle><circle cx="120.75000000000001" cy="211.87096774193546" fill="#FFFF00" r="3.3125"><title>2024-05-23: 33 km</title></circle><circle cx="120.75000000000001" cy="220.70967741935482" fill="#FFFF00" r="3.3125"><title>2024-05-24: 34 km</title></circle><circle cx="120.75000000000001" cy="229.54838709677418" fill="#555555" r="3.3125"><title>2024-05-25</title></circle><circle cx="120.75000000000001" cy="238.3870967741935" fill="#555555" r="3.3125"><title>2024-05-26</title></circle><circle cx="120.75000000000001" cy="247.22580645161287" fill="#555555" r="3.3125"><title>2024-05-27</title></circle><circle cx="120.75000000000001" cy="256.06451612903226" fill="#FFFF00" r="3.3125"><title>2024-05-28: 37 km</title></circle><circle cx="120.75000000000001" cy="264.90322580645164" fill="#FFFF00" r="3.3125"><title>2024-05-29: 41 km</title></circle><circle cx="120.75000000000001" cy="273.741935483871" fill="#FFFF00" r="3.3125"><title>2024-05-30: 16 km</title></circle><circle cx="120.75000000000001" cy="282.5806451612903" fill="#555555" r="3.3125"><title>2024-05-31</title></circle><circle cx="129.58333333333334" cy="17.419354838709676" fill="#FFFF00" r="3.3125"><title>2024-06-01: 31 km</title></circle><circle cx="129.58333333333334" cy="26.25806451612903" fill="#FFFF00" r="3.3125"><title>2024-06-02: 115 km</title></circle><circle cx="129.58333333333334" cy="35.096774193548384" fill="#555555" r="3.3125"><title>2024-06-03</title></circle><circle cx="129.58333333333334" cy="43.935483870967744" fill="#555555" r="3.3125"><title>2024-06-04</title></circle><circle cx="129.58333333333334" cy="52.774193548387096" fill="#FFFF00" r="3.3125"><title>2024-06-05: 15 km</title></circle><circle cx="129.58333333333334" cy="61.61290322580645" fill="#555555" r="3.3125"><title>2024-06-06</title></circle><circle cx="129.58333333333334" cy="70.45161290322581" fill="#555555" r="3.3125"><title>2024-06-07</title></circle><circle cx="129.58333333333334" cy="79.29032258064517" fill="#FFFF00" r="3.3125"><title>2024-06-08: 90 km</title></circle><circle cx="129.58333333333334" cy="88.12903225806451" fill="#FFFF00" r="3.3125"><title>2024-06-09: 201 km</title></circle><circle cx="129.58333333333334" cy="96.96774193548387" fill="#FFFF00" r="3.3125"><title>2024-06-10: 83 km</title></circle><circle cx="129.58333333333334" cy="105.80645161290322" fill="#555555" r="3.3125"><title>2024-06-11</title></circle><circle cx="129.58333333333334" cy="114.64516129032258" fill="#FFFF00" r="3.3125"><title>2024-06-12: 45 km</title></circle><circle cx="129.58333333333334" cy="123.48387096774194" fill="#555555" r="3.3125"><title>2024-06-13</title></circle><circle cx="129.58333333333334" cy="132.32258064516128" fill="#FFFF00" r="3.3125"><title>2024-06-14: 54 km</title></circle><circle cx="129.58333333333334" cy="141.16129032258064" fill="#FFFF00" r="3.3125"><title>2024-06-15: 32 km</title></circle><circle cx="129.58333333333334" cy="149.99999999999997" fill="#FFFF00" r="3.3125"><title>2024-06-16: 81 km</title></circle><circle cx="129.58333333333334" cy="158.83870967741933" fill="#FFFF00" r="3.3125"><title>2024-06-17: 11 km</title></circle><circle cx="129.58333333333334" cy="167.6774193548387" fill="#FFFF00" r="3.3125"><title>2024-06-18: 11 km</title></circle><circle cx="129.58333333333334" cy="176.51612903225805" fill="#FFFF00" r="3.3125"><title>2024-06-19: 16 km</title></circle><circle cx="129.58333333333334" cy="185.35483870967738" fill="#555555" r="3.3125"><title>2024-06-20</title></circle><circle cx="129.58333333333334" cy="194.19354838709674" fill="#FFFF00" r="3.3125"><title>2024-06-21: 16 km</title></circle><circle cx="129.58333333333334" cy="203.0322580645161" fill="#555555" r="3.3125"><title>2024-06-22</title></circle><circle cx="129.58333333333334" cy="211.87096774193546" fill="#FFFF00" r="3.3125"><title>2024-06-23: 57 km</title></circle><circle cx="129.58333333333334" cy="220.70967741935482" fill="#FFFF00" r="3.3125"><title>2024-06-24: 39 km</title></circle><circle cx="129.58333333333334" cy="229.54838709677418" fill="#555555" r="3.3125"><title>2024-06-25</title></circle><circle cx="129.58333333333334" cy="238.3870967741935" fill="#555555" r="3.3125"><title>2024-06-26</title></circle><circle cx="129.58333333333334" cy="247.22580645161287" fill="#FFFF00" r="3.3125"><title>2024-06-27: 45 km</title></circle><circle cx="129.58333333333334" cy="256.06451612903226" fill="#FFFF00" r="3.3125"><title>2024-06-28: 36 km</title></circle><circle cx="129.58333333333334" cy="264.90322580645164" fill="#FFFF00" r="3.3125"><title>2024-06-29: 16 km</title></circle><circle cx="129.58333333333334" cy="273.741935483871" fill="#555555" r="3.3125"><title>2024-06-30</title></circle><circle cx="138.41666666666666" cy="17.419354838709676" fill="#FFFF00" r="3.3125"><title>2024-07-01: 35 km</title></circle><circle cx="138.41666666666666" cy="26.25806451612903" fill="#FFFF00" r="3.3125"><title>2024-07-02: 14 km</title></circle><circle cx="138.41666666666666" cy="35.096774193548384" fill="#FFFF00" r="3.3125"><title>2024-07-03: 17 km</title></circle><circle cx="138.41666666666666" cy="43.935483870967744" fill="#FFFF00" r="3.3125"><title>2024-07-04: 11 km</title></circle><circle cx="138.41666666666666" cy="52.774193548387096" fill="#FFFF00" r="3.3125"><title>2024-07-05: 11 km</title></circle><circle cx="138.41666666666666" cy="61.61290322580645" fill="#FFFF00" r="3.3125"><title>2024-07-06: 102 km</title></circle><circle cx="138.41666666666666" cy="70.45161290322581" fill="#FFFF00" r="3.3125"><title>2024-07-07: 30 km</title></circle><circle cx="138.41666666666666" cy="79.29032258064517" fill="#FFFF00" r="3.3125"><title>2024-07-08: 47 km</title></circle><circle cx="138.41666666666666" cy="88.12903225806451" fill="#555555" r="3.3125"><title>2024-07-09</title></circle><circle cx="138.41666666666666" cy="96.96774193548387" fill="#FFFF00" r="3.3125"><title>2024-07-10: 36 km</title></circle><circle cx="138.41666666666666" cy="105.80645161290322" fill="#FFFF00" r="3.3125"><title>2024-07-11: 14 km</title></circle><circle cx="138.41666666666666" cy="114.64516129032258" fill="#FFFF00" r="3.3125"><title>2024-07-12: 30 km</title></circle><circle cx="138.41666666666666" cy="123.48387096774194" fill="#FFFF00" r="3.3125"><title>2024-07-13: 24 km</title></circle><circle cx="138.41666666666666" cy="132.32258064516128" fill="#FFFF00" r="3.3125"><title>2024-07-14: 115 km</title></circle><circle cx="138.41666666666666" cy="141.16129032258064" fill="#555555" r="3.3125"><title>2024-07-15</title></circle><circle cx="138.41666666666666" cy="149.99999999999997" fill="#555555" r="3.3125"><title>2024-07-16</title></circle><circle cx="138.41666666666666" cy="158.83870967741933" fill="#555555" r="3.3125"><title>2024-07-17</title></circle><circle cx="138.41666666666666" cy="167.6774193548387" fill="#FFFF00" r="3.3125"><title>2024-07-18: 14 km</title></circle><circle cx="138.41666666666666" cy="176.51612903225805" fill="#FFFF00" r="3.3125"><title>2024-07-19: 14 km</title></circle><circle cx="138.41666666666666" cy="185.35483870967738" fill="#555555" r="3.3125"><title>2024-07-20</title></circle><circle cx="138.41666666666666" cy="194.19354838709674" fill="#FFFF00" r="3.3125"><title>2024-07-21: 32 km</title></circle><circle cx="138.41666666666666" cy="203.0322580645161" fill="#555555" r="3.3125"><title>2024-07-22</title></circle><circle cx="138.41666666666666" cy="211.87096774193546" fill="#FFFF00" r="3.3125"><title>2024-07-23: 14 km</title></circle><circle cx="138.41666666666666" cy="220.70967741935482" fill="#FFFF00" r="3.3125"><title>2024-07-24: 27 km</title></circle><circle cx="138.41666666666666" cy="229.54838709677418" fill="#FFFF00" r="3.3125"><title>2024-07-25: 17 km</title></circle><circle cx="138.41666666666666" cy="238.3870967741935" fill="#FFFF00" r="3.3125"><title>2024-07-26: 14 km</title></circle><circle cx="138.41666666666666" cy="247.22580645161287" fill="#555555" r="3.3125"><title>2024-07-27</title></circle><circle cx="138.41666666666666" cy="256.06451612903226" fill="#FFFF00" r="3.3125"><title>2024-07-28: 80 km</title></circle><circle cx="138.41666666666666" cy="264.90322580645164" fill="#555555" r="3.3125"><title>2024-07-29</title></circle><circle cx="138.41666666666666" cy="273.741935483871" fill="#555555" r="3.3125"><title>2024-07-30</title></circle><circle cx="138.41666666666666" cy="282.5806451612903" fill="#555555" r="3.3125"><title>2024-07-31</title></circle><circle cx="147.25" cy="17.419354838709676" fill="#555555" r="3.3125"><title>2024-08-01</title></circle><circle cx="147.25" cy="26.25806451612903" fill="#555555" r="3.3125"><title>2024-08-02</title></circle><circle cx="147.25" cy="35.096774193548384" fill="#555555" r="3.3125"><title>2024-08-03</title></circle><circle cx="147.25" cy="43.935483870967744" fill="#FFFF00" r="3.3125"><title>2024-08-04: 35 km</title></circle><circle cx="147.25" cy="52.774193548387096" fill="#518b9e" r="3.3125"><title>2024-08-05: 4 km</title></circle><circle cx="147.25" cy="61.61290322580645" fill="#FFFF00" r="3.3125"><title>2024-08-06: 27 km</title></circle><circle cx="147.25" cy="70.45161290322581" fill="#555555" r="3.3125"><title>2024-08-07</title></circle><circle cx="147.25" cy="79.29032258064517" fill="#FFFF00" r="3.3125"><title>2024-08-08: 39 km</title></circle><circle cx="147.25" cy="88.12903225806451" fill="#FFFF00" r="3.3125"><title>2024-08-09: 92 km</title></circle><circle cx="147.25" cy="96.96774193548387" fill="#FFFF00" r="3.3125"><title>2024-08-10: 138 km</title></circle><circle cx="147.25" cy="105.80645161290322" fill="#FFFF00" r="3.3125"><title>2024-08-11: 58 km</title></circle><circle cx="147.25" cy="114.64516129032258" fill="#555555" r="3.3125"><title>2024-08-12</title></circle><circle cx="147.25" cy="123.48387096774194" fill="#555555" r="3.3125"><title>2024-08-13</title></circle><circle cx="147.25" cy="132.32258064516128" fill="#555555" r="3.3125"><title>2024-08-14</title></circle><circle cx="147.25" cy="141.16129032258064" fill="#555555" r="3.3125"><title>2024-08-15</title></circle><circle cx="147.25" cy="149.99999999999997" fill="#FFFF00" r="3.3125"><title>2024-08-16: 53 km</title></circle><circle cx="147.25" cy="158.83870967741933" fill="#555555" r="3.3125"><title>2024-08-17</title></circle><circle cx="147.25" cy="167.6774193548387" fill="#FFFF00" r="3.3125"><title>2024-08-18: 51 km</title></circle><circle cx="147.25" cy="176.51612903225805" fill="#555555" r="3.3125"><title>2024-08-19</title></circle><circle cx="147.25" cy="185.35483870967738" fill="#555555" r="3.3125"><title>2024-08-20</title></circle><circle cx="147.25" cy="194.19354838709674" fill="#FFFF00" r="3.3125"><title>2024-08-21: 14 km</title></circle><circle cx="147.25" cy="203.0322580645161" fill="#555555" r="3.3125"><title>2024-08-22</title></circle><circle cx="147.25" cy="211.87096774193546" fill="#FFFF00" r="3.3125"><title>2024-08-23: 37 km</title></circle><circle cx="147.25" cy="220.70967741935482" fill="#FFFF00" r="3.3125"><title>2024-08-24: 37 km</title></circle><circle cx="147.25" cy="229.54838709677418" fill="#FFFF00" r="3.3125"><title>2024-08-25: 43 km</title></circle><circle cx="147.25" cy="238.3870967741935" fill="#FFFF00" r="3.3125"><title>2024-08-26: 37 km</title></circle><circle cx="147.25" cy="247.22580645161287" fill="#555555" r="3.3125"><title>2024-08-27</title></circle><circle cx="147.25" cy="256.06451612903226" fill="#555555" r="3.3125"><title>2024-08-28</title></circle><circle cx="147.25" cy="264.90322580645164" fill="#555555" r="3.3125"><title>2024-08-29</title></circle><circle cx="147.25" cy="273.741935483871" fill="#FFFF00" r="3.3125"><title>2024-08-30: 15 km</title></circle><circle cx="147.25" cy="282.5806451612903" fill="#FFFF00" r="3.3125"><title>2024-08-31: 11 km</title></circle><circle cx="156.08333333333334" cy="17.419354838709676" fill="#FFFF00" r="3.3125"><title>2024-09-01: 51 km</title></circle><circle cx="156.08333333333334" cy="26.25806451612903" fill="#555555" r="3.3125"><title>2024-09-02</title></circle><circle cx="156.08333333333334" cy="35.096774193548384" fill="#FFFF00" r="3.3125"><title>2024-09-03: 10 km</title></circle><circle cx="156.08333333333334" cy="43.935483870967744" fill="#555555" r="3.3125"><title>2024-09-04</title></circle><circle cx="156.08333333333334" cy="52.774193548387096" fill="#FFFF00" r="3.3125"><title>2024-09-05: 16 km</title></circle><circle cx="156.08333333333334" cy="61.61290322580645" fill="#555555" r="3.3125"><title>2024-09-06</title></circle><circle cx="156.08333333333334" cy="70.45161290322581" fill="#FFFF00" r="3.3125"><title>2024-09-07: 28 km</title></circle><circle cx="156.08333333333334" cy="79.29032258064517" fill="#FFFF00" r="3.3125"><title>2024-09-08: 52 km</title></circle><circle cx="156.08333333333334" cy="88.12903225806451" fill="#FFFF00" r="3.3125"><title>2024-09-09: 24 km</title></circle><circle cx="156.08333333333334" cy="96.96774193548387" fill="#FFFF00" r="3.3125"><title>2024-09-10: 12 km</title></circle><circle cx="156.08333333333334" cy="105.80645161290322" fill="#FFFF00" r="3.3125"><title>2024-09-11: 10 km</title></circle><circle cx="156.08333333333334" cy="114.64516129032258" fill="#FFFF00" r="3.3125"><title>2024-09-12: 15 km</title></circle><circle cx="156.08333333333334" cy="123.48387096774194" fill="#FFFF00" r="3.3125"><title>2024-09-13: 11 km</title></circle><circle cx="156.08333333333334" cy="132.32258064516128" fill="#FFFF00" r="3.3125"><title>2024-09-14: 26 km</title></circle><circle cx="156.08333333333334" cy="141.16129032258064" fill="#FFFF00" r="3.3125"><title>2024-09-15: 73 km</title></circle><circle cx="156.08333333333334" cy="149.99999999999997" fill="#FFFF00" r="3.3125"><title>2024-09-16: 14 km</title></circle><circle cx="156.08333333333334" cy="158.83870967741933" fill="#FFFF00" r="3.3125"><title>2024-09-17: 19 km</title></circle><circle cx="156.08333333333334" cy="167.6774193548387" fill="#555555" r="3.3125"><title>2024-09-18</title></circle><circle cx="156.08333333333334" cy="176.51612903225805" fill="#FFFF00" r="3.3125"><title>2024-09-19: 13 km</title></circle><circle cx="156.08333333333334" cy="185.35483870967738" fill="#FFFF00" r="3.3125"><title>2024-09-20: 11 km</title></circle><circle cx="156.08333333333334" cy="194.19354838709674" fill="#FFFF00" r="3.3125"><title>2024-09-21: 15 km</title></circle><circle cx="156.08333333333334" cy="203.0322580645161" fill="#555555" r="3.3125"><title>2024-09-22</title></circle><circle cx="156.08333333333334" cy="211.87096774193546" fill="#555555" r="3.3125"><title>2024-09-23</title></circle><circle cx="156.08333333333334" cy="220.70967741935482" fill="#FFFF00" r="3.3125"><title>2024-09-24: 30 km</title></circle><circle cx="156.08333333333334" cy="229.54838709677418" fill="#FFFF00" r="3.3125"><title>2024-09-25: 12 km</title></circle><circle cx="156.08333333333334" cy="238.3870967741935" fill="#FFFF00" r="3.3125"><title>2024-09-26: 16 km</title></circle><circle cx="156.08333333333334" cy="247.22580645161287" fill="#555555" r="3.3125"><title>2024-09-27</title></circle><circle cx="156.08333333333334" cy="256.06451612903226" fill="#555555" r="3.3125"><title>2024-09-28</title></circle><circle cx="156.08333333333334" cy="264.90322580645164" fill="#FFFF00" r="3.3125"><title>2024-09-29: 40 km</title></circle><circle cx="156.08333333333334" cy="273.741935483871" fill="#FFFF00" r="3.3125"><title>2024-09-30: 25 km</title></circle><circle cx="164.91666666666666" cy="17.419354838709676" fill="#FFFF00" r="3.3125"><title>2024-10-01: 90 km</title></circle><circle cx="164.91666666666666" cy="26.25806451612903" fill="#536c74" r="3.3125"><title>2024-10-02: 1 km</title></circle><circle cx="164.91666666666666" cy="35.096774193548384" fill="#FFFF00" r="3.3125"><title>2024-10-03: 36 km</title></circle><circle cx="164.91666666666666" cy="43.935483870967744" fill="#555555" r="3.3125"><title>2024-10-04</title></circle><circle cx="164.91666666666666" cy="52.774193548387096" fill="#FFFF00" r="3.3125"><title>2024-10-05: 41 km</title></circle><circle cx="164.91666666666666" cy="61.61290322580645" fill="#555555" r="3.3125"><title>2024-10-06</title></circle><circle cx="164.91666666666666" cy="70.45161290322581" fill="#FFFF00" r="3.3125"><title>2024-10-07: 40 km</title></circle><circle cx="164.91666666666666" cy="79.29032258064517" fill="#555555" r="3.3125"><title>2024-10-08</title></circle><circle cx="164.91666666666666" cy="88.12903225806451" fill="#FFFF00" r="3.3125"><title>2024-10-09: 44 km</title></circle><circle cx="164.91666666666666" cy="96.96774193548387" fill="#FFFF00" r="3.3125"><title>2024-10-10: 42 km</title></circle><circle cx="164.91666666666666" cy="105.80645161290322" fill="#FFFF00" r="3.3125"><title>2024-10-11: 33 km</title></circle><circle cx="164.91666666666666" cy="114.64516129032258" fill="#555555" r="3.3125"><title>2024-10-12</title></circle><circle cx="164.91666666666666" cy="123.48387096774194" fill="#FFFF00" r="3.3125"><title>2024-10-13: 81 km</title></circle><circle cx="164.91666666666666" cy="132.32258064516128" fill="#555555" r="3.3125"><title>2024-10-14</title></circle><circle cx="164.91666666666666" cy="141.16129032258064" fill="#FFFF00" r="3.3125"><title>2024-10-15: 14 km</title></circle><circle cx="164.91666666666666" cy="149.99999999999997" fill="#555555" r="3.3125"><title>2024-10-16</title></circle><circle cx="164.91666666666666" cy="158.83870967741933" fill="#555555" r="3.3125"><title>2024-10-17</title></circle><circle cx="164.91666666666666" cy="167.6774193548387" fill="#FFFF00" r="3.3125"><title>2024-10-18: 29 km</title></circle><circle cx="164.91666666666666" cy="176.51612903225805" fill="#FFFF00" r="3.3125"><title>2024-10-19: 113 km</title></circle><circle cx="164.91666666666666" cy="185.35483870967738" fill="#FFFF00" r="3.3125"><title>2024-10-20: 24 km</title></circle><circle cx="164.91666666666666" cy="194.19354838709674" fill="#FFFF00" r="3.3125"><title>2024-10-21: 19 km</title></circle><circle cx="164.91666666666666" cy="203.0322580645161" fill="#555555" r="3.3125"><title>2024-10-22</title></circle><circle cx="164.91666666666666" cy="211.87096774193546" fill="#FFFF00" r="3.3125"><title>2024-10-23: 22 km</title></circle><circle cx="164.91666666666666" cy="220.70967741935482" fill="#FFFF00" r="3.3125"><title>2024-10-24: 21 km</title></circle><circle cx="164.91666666666666" cy="229.54838709677418" fill="#4faac9" r="3.3125"><title>2024-10-25: 6 km</title></circle><circle cx="164.91666666666666" cy="238.3870967741935" fill="#FFFF00" r="3.3125"><title>2024-10-26: 84 km</title></circle><circle cx="164.91666666666666" cy="247.22580645161287" fill="#FFFF00" r="3.3125"><title>2024-10-27: 66 km</title></circle><circle cx="164.91666666666666" cy="256.06451612903226" fill="#555555" r="3.3125"><title>2024-10-28</title></circle><circle cx="164.91666666666666" cy="264.90322580645164" fill="#555555" r="3.3125"><title>2024-10-29</title></circle><circle cx="164.91666666666666" cy="273.741935483871" fill="#555555" r="3.3125"><title>2024-10-30</title></circle><circle cx="164.91666666666666" cy="282.5806451612903" fill="#555555" r="3.3125"><title>2024-10-31</title></circle><circle cx="173.75" cy="17.419354838709676" fill="#FFFF00" r="3.3125"><title>2024-11-01: 21 km</title></circle><circle cx="173.75" cy="26.25806451612903" fill="#FFFF00" r="3.3125"><title>2024-11-02: 65 km</title></circle><circle cx="173.75" cy="35.096774193548384" fill="#555555" r="3.3125"><title>2024-11-03</title></circle><circle cx="173.75" cy="43.935483870967744" fill="#FFFF00" r="3.3125"><title>2024-11-04: 19 km</title></circle><circle cx="173.75" cy="52.774193548387096" fill="#FFFF00" r="3.3125"><title>2024-11-05: 20 km</title></circle><circle cx="173.75" cy="61.61290322580645" fill="#FFFF00" r="3.3125"><title>2024-11-06: 20 km</title></circle><circle cx="173.75" cy="70.45161290322581" fill="#FFFF00" r="3.3125"><title>2024-11-07: 21 km</title></circle><circle cx="173.75" cy="79.29032258064517" fill="#FFFF00" r="3.3125"><title>2024-11-08: 172 km</title></circle><circle cx="173.75" cy="88.12903225806451" fill="#FFFF00" r="3.3125"><title>2024-11-09: 22 km</title></circle><circle cx="173.75" cy="96.96774193548387" fill="#FFFF00" r="3.3125"><title>2024-11-10: 175 km</title></circle><circle cx="173.75" cy="105.80645161290322" fill="#555555" r="3.3125"><title>2024-11-11</title></circle><circle cx="173.75" cy="114.64516129032258" fill="#4dcbf5" r="3.3125"><title>2024-11-12: 9 km</title></circle><circle cx="173.75" cy="123.48387096774194" fill="#FFFF00" r="3.3125"><title>2024-11-13: 10 km</title></circle><circle cx="173.75" cy="132.32258064516128" fill="#555555" r="3.3125"><title>2024-11-14</title></circle><circle cx="173.75" cy="141.16129032258064" fill="#FFFF00" r="3.3125"><title>2024-11-15: 19 km</title></circle><circle cx="173.75" cy="149.99999999999997" fill="#FFFF00" r="3.3125"><title>2024-11-16: 172 km</title></circle><circle cx="173.75" cy="158.83870967741933" fill="#FFFF00" r="3.3125"><title>2024-11-17: 81 km</title></circle><circle cx="173.75" cy="167.6774193548387" fill="#555555" r="3.3125"><title>2024-11-18</title></circle><circle cx="173.75" cy="176.51612903225805" fill="#555555" r="3.3125"><title>2024-11-19</title></circle><circle cx="173.75" cy="185.35483870967738" fill="#555555" r="3.3125"><title>2024-11-20</title></circle><circle cx="173.75" cy="194.19354838709674" fill="#FFFF00" r="3.3125"><title>2024-11-21: 15 km</title></circle><circle cx="173.75" cy="203.0322580645161" fill="#FFFF00" r="3.3125"><title>2024-11-22: 19 km</title></circle><circle cx="173.75" cy="211.87096774193546" fill="#555555" r="3.3125"><title>2024-11-23</title></circle><circle cx="173.75" cy="220.70967741935482" fill="#FFFF00" r="3.3125"><title>2024-11-24: 114 km</title></circle><circle cx="173.75" cy="229.54838709677418" fill="#555555" r="3.3125"><title>2024-11-25</title></circle><circle cx="173.75" cy="238.3870967741935" fill="#FFFF00" r="3.3125"><title>2024-11-26: 20 km</title></circle><circle cx="173.75" cy="247.22580645161287" fill="#FFFF00" r="3.3125"><title>2024-11-27: 25 km</title></circle><circle cx="173.75" cy="256.06451612903226" fill="#555555" r="3.3125"><title>2024-11-28</title></circle><circle cx="173.75" cy="264.90322580645164" fill="#555555" r="3.3125"><title>2024-11-29</title></circle><circle cx="173.75" cy="273.741935483871" fill="#FFFF00" r="3.3125"><title>2024-11-30: 103 km</title></circle><circle cx="182.58333333333334" cy="17.419354838709676" fill="#FFFF00" r="3.3125"><title>2024-12-01: 50 km</title></circle><circle cx="182.58333333333334" cy="26.25806451612903" fill="#555555" r="3.3125"><title>2024-12-02</title></circle><circle cx="182.58333333333334" cy="35.096774193548384" fill="#FFFF00" r="3.3125"><title>2024-12-03: 18 km</title></circle><circle cx="182.58333333333334" cy="43.935483870967744" fill="#FFFF00" r="3.3125"><title>2024-12-04: 19 km</title></circle><circle cx="182.58333333333334" cy="52.774193548387096" fill="#FFFF00" r="3.3125"><title>2024-12-05: 62 km</title></circle><circle cx="182.58333333333334" cy="61.61290322580645" fill="#555555" r="3.3125"><title>2024-12-06</title></circle><circle cx="182.58333333333334" cy="70.45161290322581" fill="#FFFF00" r="3.3125"><title>2024-12-07: 29 km</title></circle><circle cx="182.58333333333334" cy="79.29032258064517" fill="#FFFF00" r="3.3125"><title>2024-12-08: 108 km</title></circle><circle cx="182.58333333333334" cy="88.12903225806451" fill="#555555" r="3.3125"><title>2024-12-09</title></circle><circle cx="182.58333333333334" cy="96.96774193548387" fill="#FFFF00" r="3.3125"><title>2024-12-10: 23 km</title></circle><circle cx="182.58333333333334" cy="105.80645161290322" fill="#555555" r="3.3125"><title>2024-12-11</title></circle><circle cx="182.58333333333334" cy="114.64516129032258" fill="#FFFF00" r="3.3125"><title>2024-12-12: 24 km</title></circle><circle cx="182.58333333333334" cy="123.48387096774194" fill="#FFFF00" r="3.3125"><title>2024-12-13: 67 km</title></circle><circle cx="182.58333333333334" cy="132.32258064516128" fill="#555555" r="3.3125"><title>2024-12-14</title></circle><circle cx="182.58333333333334" cy="141.16129032258064" fill="#FFFF00" r="3.3125"><title>2024-12-15: 22 km</title></circle><circle cx="182.58333333333334" cy="149.99999999999997" fill="#555555" r="3.3125"><title>2024-12-16</title></circle><circle cx="182.58333333333334" cy="158.83870967741933" fill="#555555" r="3.3125"><title>2024-12-17</title></circle><circle cx="182.58333333333334" cy="167.6774193548387" fill="#FFFF00" r="3.3125"><title>2024-12-18: 30 km</title></circle><circle cx="182.58333333333334" cy="176.51612903225805" fill="#FFFF00" r="3.3125"><title>2024-12-19: 31 km</title></circle><circle cx="182.58333333333334" cy="185.35483870967738" fill="#FFFF00" r="3.3125"><title>2024-12-20: 38 km</title></circle><circle cx="182.58333333333334" cy="194.19354838709674" fill="#FFFF00" r="3.3125"><title>2024-12-21: 10 km</title></circle><circle cx="182.58333333333334" cy="203.0322580645161" fill="#FFFF00" r="3.3125"><title>2024-12-22: 21 km</title></circle><circle cx="182.58333333333334" cy="211.87096774193546" fill="#FFFF00" r="3.3125"><title>2024-12-23: 39 km</title></circle><circle cx="182.58333333333334" cy="220.70967741935482" fill="#FFFF00" r="3.3125"><title>2024-12-24: 12 km</title></circle><circle cx="182.58333333333334" cy="229.54838709677418" fill="#FFFF00" r="3.3125"><title>2024-12-25: 71 km</title></circle><circle cx="182.58333333333334" cy="238.3870967741935" fill="#555555" r="3.3125"><title>2024-12-26</title></circle><circle cx="182.58333333333334" cy="247.22580645161287" fill="#FFFF00" r="3.3125"><title>2024-12-27: 52 km</title></circle><circle cx="182.58333333333334" cy="256.06451612903226" fill="#FFFF00" r="3.3125"><title>2024-12-28: 91 km</title></circle><circle cx="182.58333333333334" cy="264.90322580645164" fill="#FFFF00" r="3.3125"><title>2024-12-29: 51 km</title></circle><circle cx="182.58333333333334" cy="273.741935483871" fill="#FFFF00" r="3.3125"><title>2024-12-30: 16 km</title></circle><circle cx="182.58333333333334" cy="282.5806451612903" fill="#FFFF00" r="3.3125"><title>2024-12-31: 151 km</title></circle></svg>